<?xml version="1.0" encoding="utf-8"?>
<!-- Generator: Adobe Illustrator 25.0.0, SVG Export Plug-In . SVG Version: 6.00 Build 0)  -->
<svg version="1.1" id="Layer_1" xmlns="http://www.w3.org/2000/svg" xmlns:xlink="http://www.w3.org/1999/xlink" x="0px" y="0px"
	 viewBox="0 0 1024 1024" style="enable-background:new 0 0 1024 1024;" xml:space="preserve">
<style type="text/css">
	.st0{display:none;}
	.st1{fill:#FEFEFE;}
	.st2{fill:#00BDFF;}
	.st3{fill:#873EC1;}
	.st4{fill:#EC00FF;}
	.st5{enable-background:new    ;}
	.st6{fill:#E9E9EA;}
</style>
<path class="st0" d="M0,0h1024v1024H0V0z"/>
<path class="st1" d="M73.2,168.2c36.2-0.8,72.6-0.1,108.8-0.1l46.2,0.3c17.4,0.1,35.7-0.9,52.6,3.3c32.3,8,58.8,29.8,75.2,58.5
	c6.5,11.5,11.5,23.8,17.1,35.8c8.6,18.4,17.2,36.7,25.6,55.1c1.6,3.5,4.9,13.4,8.4,14.8c1.2,0.5,17.6-6.3,20.4-7
	c10.6-2.7,21-2.2,31.8-2.2h28.4h82.1c9.4,0,40.9,1.3,47.9-0.9c3.8-1.2,7.1-4.7,9.2-8c3.7-6.1,6.4-13.6,9.4-20.2l16.8-36.3
	c7.9-17.3,15-34.1,27-49.2c1.6-1.9,3.2-3.8,4.8-5.7c1.7-1.8,3.4-3.6,5.2-5.3s3.6-3.4,5.5-5s3.8-3.2,5.8-4.6c2-1.5,4-2.9,6.1-4.3
	c2.1-1.4,4.2-2.6,6.4-3.9c2.2-1.2,4.4-2.4,6.6-3.5c2.2-1.1,4.5-2.1,6.8-3c9.2-3.7,19.5-6.5,29.4-7.5c12.5-1.2,25.2-0.9,37.7-1
	l60.4-0.2h61.1c11.4,0,23-0.4,34.3,0.3c5.7,0.4,12.2,1.1,17.5,3.4c9.9,4.4,18.1,11.7,22,22c3.4,9,2.7,18.5-0.2,27.5
	c-2,6.4-5.1,12.5-7.9,18.6l-12.1,26.3l-37.9,82.3L791,653.1l-44.4,96.3c-7.8,17-16.7,39.5-26.7,54.9c-6.8,10.4-14.9,18.9-24.9,26.2
	c-0.6,0.5-1.3,0.9-1.9,1.4c-0.7,0.5-1.3,0.9-2,1.3c-0.7,0.4-1.3,0.9-2,1.3c-0.7,0.4-1.4,0.8-2,1.2c-0.7,0.4-1.4,0.8-2.1,1.2
	c-0.7,0.4-1.4,0.8-2.1,1.1c-0.7,0.4-1.4,0.7-2.1,1.1c-0.7,0.4-1.4,0.7-2.2,1c-0.7,0.3-1.4,0.7-2.2,1c-0.7,0.3-1.5,0.6-2.2,0.9
	c-0.7,0.3-1.5,0.6-2.2,0.9c-0.7,0.3-1.5,0.5-2.2,0.8c-0.8,0.3-1.5,0.5-2.3,0.8c-0.8,0.2-1.5,0.5-2.3,0.7s-1.5,0.4-2.3,0.6
	c-0.8,0.2-1.5,0.4-2.3,0.6c-0.8,0.2-1.6,0.4-2.3,0.5c-0.8,0.2-1.6,0.3-2.3,0.5c-0.8,0.1-1.6,0.3-2.4,0.4c-0.8,0.1-1.6,0.2-2.4,0.3
	c-0.8,0.1-1.6,0.2-2.4,0.3c-0.8,0.1-1.6,0.2-2.4,0.2c-0.8,0.1-1.6,0.1-2.4,0.2c-0.8,0-1.6,0.1-2.4,0.1c-0.8,0-1.6,0-2.4,0.1
	c-0.8,0-1.6,0-2.4,0c-0.8,0-1.6,0-2.4-0.1c-0.8,0-1.6-0.1-2.4-0.1c-0.8-0.1-1.6-0.1-2.4-0.2c-0.8-0.1-1.6-0.2-2.4-0.2
	c-0.8-0.1-1.6-0.2-2.4-0.3c-0.8-0.1-1.6-0.2-2.4-0.4c-1.5-0.3-3-0.6-4.5-0.9c-1.5-0.3-3-0.7-4.5-1.1c-1.5-0.4-3-0.8-4.4-1.3
	c-1.5-0.5-2.9-1-4.4-1.5c-1.4-0.5-2.9-1.1-4.3-1.8c-1.4-0.6-2.8-1.3-4.2-2s-2.7-1.4-4.1-2.2c-1.3-0.8-2.7-1.5-4-2.4
	c-25.2-15.7-35-35.4-47-61.5l-14.8-31.5c-2.6-5.5-8.5-20.3-11.5-24.1c-0.9-1.1-1.3-1.3-2.7-1.5c-2,0.8-3.1,2.2-4.2,4
	c-3.1,5.3-5.3,11.5-7.9,17c-8.7,18.5-16.5,37.8-26.1,55.8c-4.3,8-9.1,15.6-15.1,22.5c-0.5,0.6-1.1,1.2-1.6,1.8s-1.1,1.2-1.6,1.8
	c-0.6,0.6-1.1,1.2-1.7,1.7c-0.6,0.6-1.1,1.1-1.7,1.7s-1.2,1.1-1.8,1.6c-0.6,0.5-1.2,1.1-1.8,1.6c-0.6,0.5-1.2,1-1.8,1.5
	c-0.6,0.5-1.2,1-1.9,1.5c-0.6,0.5-1.3,1-1.9,1.5s-1.3,0.9-2,1.4s-1.3,0.9-2,1.4c-0.7,0.4-1.3,0.9-2,1.3c-0.7,0.4-1.4,0.8-2.1,1.3
	c-0.7,0.4-1.4,0.8-2.1,1.2s-1.4,0.8-2.1,1.2s-1.4,0.7-2.1,1.1c-0.7,0.4-1.4,0.7-2.2,1.1c-0.7,0.3-1.5,0.7-2.2,1s-1.5,0.6-2.2,0.9
	c-0.7,0.3-1.5,0.6-2.2,0.9c-0.8,0.3-1.5,0.6-2.3,0.8c-0.8,0.3-1.5,0.5-2.3,0.8s-1.5,0.5-2.3,0.7s-1.5,0.5-2.3,0.7s-1.6,0.4-2.3,0.6
	c-0.8,0.2-1.6,0.4-2.3,0.6c-0.8,0.2-1.6,0.3-2.4,0.5s-1.6,0.3-2.4,0.4c-0.8,0.1-1.6,0.3-2.4,0.4c-0.8,0.1-1.6,0.2-2.4,0.3
	s-1.6,0.2-2.4,0.3s-1.6,0.1-2.4,0.2c-0.8,0-1.6,0.1-2.4,0.1s-1.6,0-2.4,0.1c-0.8,0-1.6,0-2.4,0s-1.6,0-2.4-0.1
	c-0.8,0-1.6-0.1-2.4-0.1s-1.6-0.1-2.4-0.2c-0.8-0.1-1.6-0.1-2.3-0.2c-0.8-0.1-1.6-0.2-2.3-0.3c-0.8-0.1-1.6-0.2-2.3-0.3
	c-0.8-0.1-1.5-0.3-2.3-0.4c-0.8-0.1-1.5-0.3-2.3-0.5s-1.5-0.3-2.3-0.5s-1.5-0.4-2.3-0.6c-0.8-0.2-1.5-0.4-2.3-0.6
	c-0.8-0.2-1.5-0.4-2.3-0.7c-0.7-0.2-1.5-0.5-2.2-0.7c-0.7-0.3-1.5-0.5-2.2-0.8s-1.5-0.6-2.2-0.8c-0.7-0.3-1.5-0.6-2.2-0.9
	c-0.7-0.3-1.4-0.6-2.2-1c-0.7-0.3-1.4-0.7-2.1-1s-1.4-0.7-2.1-1.1c-0.7-0.4-1.4-0.7-2.1-1.1c-0.7-0.4-1.4-0.8-2-1.2
	c-0.7-0.4-1.4-0.8-2-1.2c-0.7-0.4-1.3-0.8-2-1.3c-0.7-0.4-1.3-0.9-2-1.3c-0.6-0.4-1.3-0.9-1.9-1.4s-1.3-0.9-1.9-1.4s-1.2-1-1.9-1.5
	c-0.6-0.5-1.2-1-1.8-1.5c-0.6-0.5-1.2-1-1.8-1.5c-9.9-8.7-17.8-19.4-23.9-31.1c-5.8-11-10.6-22.6-15.8-33.9L259,709.7
	c-22.5-49.3-45.3-98.5-68.3-147.6L83.6,328.2l-31.9-69.9c-5.2-11.2-10.9-22.3-15.6-33.7c-2.1-5-3.5-10.1-3.8-15.5
	c0-0.6-0.1-1.2-0.1-1.9c0-0.6,0-1.2,0-1.9c0-0.6,0.1-1.2,0.1-1.9c0.1-0.6,0.1-1.2,0.2-1.9c0.1-0.6,0.2-1.2,0.3-1.8s0.2-1.2,0.4-1.8
	c0.1-0.6,0.3-1.2,0.5-1.8s0.4-1.2,0.6-1.8c0.2-0.6,0.4-1.2,0.7-1.7c0.2-0.6,0.5-1.1,0.8-1.7c0.3-0.6,0.5-1.1,0.8-1.7
	c0.3-0.5,0.6-1.1,0.9-1.6c0.3-0.5,0.7-1.1,1-1.6s0.7-1,1.1-1.5s0.8-1,1.2-1.5s0.8-1,1.2-1.4C50.2,172.3,61.1,168.9,73.2,168.2z"/>
<path class="st2" d="M510.1,641.6c-3.3,9.6-8.3,19-12.5,28.2L476,715.9l-19.9,42.6c-4.4,9.4-8.4,19.3-14.1,28
	c-5,7.7-11.3,13.9-18.9,19.1c-15.4,10.5-32.8,13.9-51.1,10.3c-16.7-3.3-32.1-12.6-41.5-26.9c-7.4-11.3-13.5-27.4-19.2-39.9
	L278,676.6L150,399.2L91.3,271.8l-16.7-36.3c-3.7-7.8-8.1-15.7-10.9-23.7c-0.8-2.2-1.3-5.3-0.6-7.5c0.5-1.6,1.4-2.6,2.9-3.3
	s3.3-1,5-1c9.6-0.4,19.5,0.1,29.1,0.1H167h59.9c11,0,22.1-0.4,33.1,0.2c3.4,0.2,6.8,0.6,10.2,1.2c3.4,0.6,6.7,1.4,9.9,2.5
	c16.7,5.3,31.1,16.5,41.7,30.3c11.3,14.7,18.2,33.7,26,50.5l32.1,68.8c5.9,12.7,11.4,25.7,17.8,38.2c3.3-7,6.8-13.5,12.3-19
	c7.3-7.3,16.7-11.6,26.8-13.4c9-1.6,18.5-1,27.7-1H502h140.5c-12,27.3-24.6,54.4-37.1,81.5c-5.6,12.2-11.8,24.4-16.8,36.8
	c9,5.4,25.8,12.6,28.2,23.5c0.9,4.1-0.2,8.4-2.5,11.8c-5,7.2-38.4,24.9-47.6,30.4c-3.4,2-8.1,4.1-11,6.7c-0.9,5-8,17.7-10.4,22.8
	l-20,41.9c-4.3,8.7-8.5,17.8-13.5,26L510.1,641.6z"/>
<path class="st3" d="M397.6,391.5c3.3-7,6.8-13.5,12.3-19c7.3-7.3,16.7-11.6,26.8-13.4c9-1.6,18.5-1,27.7-1h37.5h140.5
	c-12,27.3-24.6,54.4-37.1,81.5c-5.6,12.2-11.8,24.4-16.8,36.8c9,5.4,25.8,12.6,28.2,23.5c0.9,4.1-0.2,8.4-2.5,11.8
	c-5,7.2-38.4,24.9-47.6,30.4c-3.4,2-8.1,4.1-11,6.7c-0.9,5-8,17.7-10.4,22.8l-20,41.9c-4.3,8.7-8.5,17.8-13.5,26l-1.3,2.2
	c-1.9,1.3-3.8,2.6-5.9,3.6c-4.4,2.1-8.8,2.9-13.6,3.2c-9,0.6-18.3,0.2-27.3,0.2h-51h-52.7c-9.5,0-19.3,0.4-28.8-0.2
	c-2.1-0.1-4.2-0.4-6.3-0.8c-2.1-0.4-4.1-1-6.1-1.7c-7.7-2.8-14.4-9.4-17.7-16.9c-2.5-5.6-3.3-11.9-1.8-17.9
	c2.2-8.9,6.7-17.4,10.5-25.7l14.4-31.5L373,446c4.4-9.7,8.6-19.4,13.1-29C390,408.6,394.3,400.2,397.6,391.5z"/>
<path class="st1" d="M555.4,548.7c-22.4,12-43.8,26-65.9,38.5c-6,3.4-11.8,8-18.2,10.5c-4.9,2-10.1,2.6-15.1,0.4
	c-0.5-0.2-1-0.5-1.4-0.7c-0.5-0.3-0.9-0.6-1.4-0.9c-0.4-0.3-0.9-0.6-1.3-1s-0.8-0.7-1.2-1.1c-0.4-0.4-0.7-0.8-1-1.2
	s-0.6-0.9-0.9-1.3c-0.3-0.5-0.5-0.9-0.8-1.4c-0.2-0.5-0.4-1-0.6-1.5c-2.1-5.7-1-35.3-1-43.3v-71.6c0-17-1-34.3-0.1-51.3
	c0.2-3,0.7-6,2.1-8.7c1.6-3.2,4.2-5.4,7.6-6.5c3.6-1.1,7.3-0.6,10.8,0.7c11.8,4.4,25.3,13.3,36.6,19.6l84.7,48.4
	c9,5.4,25.8,12.6,28.2,23.5c0.9,4.1-0.2,8.4-2.5,11.8c-5,7.2-38.4,24.9-47.6,30.4C563,543.9,558.3,546,555.4,548.7z"/>
<path class="st4" d="M642.3,358c10-22.9,21.1-45.5,31.7-68.2c7.8-16.7,18.2-43,29.1-56.8c1.2-1.5,2.4-3,3.7-4.4s2.6-2.8,4-4.2
	s2.8-2.7,4.3-3.9c1.5-1.3,3-2.5,4.5-3.6c1.5-1.2,3.1-2.3,4.8-3.3c1.6-1.1,3.3-2,5-3c1.7-0.9,3.4-1.8,5.2-2.7
	c1.7-0.8,3.5-1.6,5.3-2.3c1.9-0.7,3.8-1.4,5.7-2s3.9-1.1,5.8-1.6c2-0.4,3.9-0.8,5.9-1.1s4-0.5,6-0.7c8.7-0.5,17.6-0.2,26.4-0.2h46.1
	c38.6,0,77.3-0.6,115.9-0.1c1.6,0,4.2-0.1,5.7,0.5c1.8,0.8,2.9,1.9,3.9,3.6c0.5,4.7-1.3,9-3.1,13.2c-11.9,27-24.7,53.6-37.2,80.3
	l-32.3,69.9l-121.6,264l-46.5,100.7L706,763.8c-4.4,9.5-8.4,20.2-15,28.4c-11.4,14.2-27.4,23.3-45.5,25.2
	c-16.9,1.8-34.6-2.8-47.9-13.6c-5.9-4.7-11.3-10.5-15.3-16.9c-7.9-12.3-14.1-28.7-20.4-42l-36.5-77.2c-2.9-6-10.8-24.5-14-28.3
	c5.1-8.3,9.3-17.3,13.5-26l20-41.9c2.5-5.2,9.5-17.8,10.4-22.8c2.9-2.6,7.6-4.7,11-6.7c9.2-5.4,42.7-23.2,47.6-30.4
	c2.4-3.4,3.4-7.7,2.5-11.8c-2.4-11-19.2-18.1-28.2-23.5c5-12.4,11.2-24.6,16.8-36.8C617.7,412.4,630.3,385.3,642.3,358z"/>
<g>
	<g class="st5">
		<path class="st6" d="M413.9,334.7l0.3,1.8c0,0,0,0,0,0.1c0,0,0,0-0.1,0l-0.2,0.1c0,0,0,0-0.1,0c0,0,0,0,0,0l-0.8-1.2
			c0,0,0-0.1-0.1-0.1c0,0,0-0.1-0.1-0.1l-0.1,0c0,0,0,0.1,0,0.1c0,0,0,0.1,0,0.1l0.2,1.4c0,0,0,0,0,0.1c0,0,0,0,0,0l-0.3,0.1
			c0,0,0,0-0.1,0c0,0,0,0,0,0l-1-1.5l0.2-0.1l0.8,1.2c0,0,0,0.1,0.1,0.1c0,0,0,0.1,0.1,0.1l0.1,0c0,0,0-0.1,0-0.1c0,0,0-0.1,0-0.1
			l-0.2-1.4c0,0,0,0,0-0.1c0,0,0,0,0,0l0.2-0.1c0,0,0,0,0.1,0c0,0,0,0,0,0l0.7,1.2c0,0,0,0.1,0.1,0.1c0,0,0,0.1,0.1,0.1l0.1,0
			c0,0,0-0.1,0-0.1c0,0,0-0.1,0-0.1l-0.2-1.5L413.9,334.7z"/>
		<path class="st6" d="M414.4,334.5l0.2,0.5c0,0.1,0,0.1,0.1,0.2c0,0,0,0.1,0,0.1l0,0l0.4,1l-0.2,0.1l-0.6-1.8L414.4,334.5z
			 M415.1,334.8c0.2-0.1,0.4,0,0.5,0.2l0.3,0.9l-0.2,0.1l-0.3-0.9c0-0.1-0.1-0.1-0.1-0.2c0,0-0.1,0-0.2,0c-0.1,0-0.1,0.1-0.2,0.1
			c-0.1,0.1-0.1,0.1-0.2,0.3l-0.1-0.1c0.1-0.1,0.1-0.2,0.2-0.3C414.9,334.9,415,334.8,415.1,334.8z"/>
		<path class="st6" d="M415.8,334C415.8,334,415.9,334,415.8,334l0.1,0.2c0,0,0,0.1,0,0.1l-0.1,0c0,0-0.1,0-0.1,0l-0.1-0.1
			c0,0,0-0.1,0-0.1L415.8,334z M416,334.5l0.5,1.2l-0.2,0.1l-0.5-1.2L416,334.5z"/>
		<path class="st6" d="M417.1,334.1l0.1,0.2l-0.8,0.3l-0.1-0.2l0.2-0.1L417.1,334.1z M416.6,333.9l0.5,1.2c0,0.1,0,0.1,0.1,0.1
			c0,0,0.1,0,0.1,0l0.2-0.1l0.1,0.2c0,0-0.1,0-0.1,0.1c0,0-0.1,0-0.1,0.1c0,0-0.1,0-0.1,0c-0.1,0-0.2,0-0.3,0s-0.1-0.1-0.2-0.2
			l-0.5-1.3L416.6,333.9z"/>
		<path class="st6" d="M417.4,333.4C417.4,333.4,417.4,333.4,417.4,333.4l0.1,0.2c0,0,0,0.1,0,0.1l-0.1,0c0,0-0.1,0-0.1,0l-0.1-0.1
			c0,0,0-0.1,0-0.1L417.4,333.4z M417.6,333.9l0.5,1.2l-0.2,0.1l-0.5-1.2L417.6,333.9z"/>
		<path class="st6" d="M418.5,333.5c0.1,0,0.2-0.1,0.3-0.1s0.2,0,0.2,0.1c0.1,0,0.1,0.1,0.1,0.2c0,0.1,0,0.2,0,0.2
			c0,0.1-0.1,0.1-0.1,0.2s-0.2,0.1-0.3,0.2c-0.1,0-0.2,0.1-0.3,0.1c-0.1,0-0.2,0-0.2-0.1c-0.1,0-0.1-0.1-0.1-0.2c0-0.1,0-0.2,0-0.2
			c0-0.1,0.1-0.1,0.1-0.2C418.3,333.6,418.4,333.6,418.5,333.5z M418.5,333.7c-0.1,0-0.2,0.1-0.2,0.1c0,0.1,0,0.1,0,0.2
			c0,0.1,0.1,0.1,0.1,0.1c0.1,0,0.2,0,0.3,0c0.1,0,0.2-0.1,0.2-0.1c0-0.1,0-0.1,0-0.2c0-0.1-0.1-0.1-0.1-0.1
			C418.8,333.7,418.7,333.7,418.5,333.7z M418.4,334.4l0.1,0c0,0,0,0.1,0,0.1c0,0,0,0.1,0,0.1c0,0,0.1,0,0.1,0l0.5-0.1
			c0.1,0,0.2,0,0.3,0c0.1,0,0.1,0.1,0.2,0.2c0,0.1,0,0.2,0,0.2c0,0.1-0.1,0.1-0.1,0.2c-0.1,0.1-0.2,0.1-0.3,0.2
			c-0.1,0-0.2,0.1-0.3,0.1c-0.1,0-0.1,0-0.2,0s-0.1,0-0.1-0.1c0,0-0.1-0.1-0.1-0.2c0-0.1,0-0.1,0-0.1c0,0,0-0.1,0-0.1
			s0.1-0.1,0.1-0.1l0.1-0.1h0.1l-0.1,0.1c0,0,0,0.1-0.1,0.1c0,0,0,0.1,0,0.1c0,0,0,0.1,0,0.1c0,0.1,0,0.1,0.1,0.1c0,0,0.1,0,0.1,0
			c0.1,0,0.1,0,0.2-0.1s0.2-0.1,0.2-0.1c0.1,0,0.1-0.1,0.1-0.1s0-0.1,0-0.1c0,0,0-0.1-0.1-0.1c0,0,0,0-0.1,0c0,0-0.1,0-0.1,0
			l-0.5,0.1c-0.1,0-0.1,0-0.1,0c0,0-0.1,0-0.1-0.1s0-0.1-0.1-0.1c0,0,0-0.1,0-0.1C418.4,334.4,418.4,334.4,418.4,334.4z
			 M419.2,333.3l0,0.1l-0.3,0.1l-0.1-0.1L419.2,333.3z"/>
		<path class="st6" d="M419.9,333c0.1-0.1,0.3-0.1,0.4-0.1c0.1,0,0.2,0.1,0.3,0.1c0.1,0.1,0.1,0.2,0.2,0.4c0.1,0.2,0.1,0.3,0.1,0.4
			c0,0.1,0,0.2-0.1,0.3c-0.1,0.1-0.2,0.1-0.3,0.2c-0.1,0.1-0.3,0.1-0.4,0.1c-0.1,0-0.2-0.1-0.3-0.1c-0.1-0.1-0.1-0.2-0.2-0.4
			c-0.1-0.2-0.1-0.3-0.1-0.4c0-0.1,0-0.2,0.1-0.3C419.7,333.1,419.8,333.1,419.9,333z M420,333.2c-0.1,0-0.2,0.1-0.2,0.1
			c0,0-0.1,0.1-0.1,0.2c0,0.1,0,0.2,0.1,0.3c0,0.1,0.1,0.2,0.1,0.3c0,0.1,0.1,0.1,0.2,0.1c0.1,0,0.1,0,0.2,0c0.1,0,0.2-0.1,0.2-0.1
			c0,0,0.1-0.1,0.1-0.2c0-0.1,0-0.2-0.1-0.3c0-0.1-0.1-0.2-0.1-0.3c0-0.1-0.1-0.1-0.2-0.1C420.2,333.2,420.1,333.2,420,333.2z"/>
		<path class="st6" d="M420.9,332.1l0.5,1.4c0,0.1,0,0.1,0.1,0.1c0,0,0.1,0,0.1,0l0.1,0l0.1,0.2c0,0,0,0-0.1,0c0,0-0.1,0-0.1,0
			c0,0-0.1,0-0.1,0c-0.1,0-0.2,0-0.2,0c-0.1,0-0.1-0.1-0.2-0.2l-0.5-1.5L420.9,332.1z"/>
	</g>
</g>
</svg>
