<?xml version="1.0" encoding="utf-8"?>
<!-- Generator: Adobe Illustrator 25.0.0, SVG Export Plug-In . SVG Version: 6.00 Build 0)  -->
<svg version="1.1" id="Layer_1" xmlns="http://www.w3.org/2000/svg" xmlns:xlink="http://www.w3.org/1999/xlink" x="0px" y="0px"
	 viewBox="0 0 2596 2631" style="enable-background:new 0 0 2596 2631;" xml:space="preserve">
<style type="text/css">
	.st0{fill-rule:evenodd;clip-rule:evenodd;fill:#FFFFFF;}
	.st1{fill:none;stroke:#000000;stroke-width:3;stroke-miterlimit:10;}
</style>
<g>
	<image style="overflow:visible;" width="2514" height="2256" xlink:href="1D5D591.png"  transform="matrix(1 0 0 1 66 214)">
	</image>
	<g>
		<path class="st0" d="M1966.3,235.3c-7.3,0.3-30.1,2-35.4,2.7c-31.2,3.8-69.1,11.4-91.4,18.1c-3.3,1-9.6,2.7-14,3.8
			s-8.3,2.3-8.9,2.7c-0.5,0.4-4.1,1.6-8.1,2.7c-3.9,1.1-8.4,2.6-10,3.4c-1.6,0.8-5.7,2.2-9,3.2c-3.4,1-6.6,2.1-7.2,2.6
			s-3.4,1.6-6.2,2.5s-6,2.1-7,2.7c-1,0.6-4.6,2.1-7.9,3.3c-3.3,1.2-8.8,3.4-12.1,4.9c-9.6,4.5-13.2,6-18.6,8.3
			c-2.8,1.2-5.3,2.4-5.6,2.8c-0.3,0.4-3.2,1.7-6.5,3c-3.3,1.3-9.2,4.1-13,6.2c-3.8,2.1-8.7,4.7-10.7,5.7c-2.1,1-6.2,3.3-9.3,5
			c-3.1,1.7-7.5,4.1-9.8,5.3c-2.3,1.2-4.4,2.5-4.8,2.9c-0.3,0.4-2.6,1.8-5.1,3c-5.6,2.8-8.4,4.4-16.4,9.5c-3.4,2.2-6.5,4-6.9,4
			s-2.8,1.4-5.4,3.1c-2.6,1.7-7.7,4.7-11.3,6.7c-3.6,1.9-7,3.9-7.6,4.4c-0.6,0.5-3.5,2.1-6.5,3.6c-7.8,4-11,5.9-11.4,6.7
			c-0.2,0.4-0.7,0.7-1.2,0.7c-0.5,0-3.3,1.7-6.3,3.7c-3,2-5.7,3.4-6,3.1c-0.3-0.3-0.6-0.1-0.6,0.5s-1,1.5-2.3,2s-2.3,1.3-2.3,1.8
			c0,0.5-0.4,1-1,1c-1.1,0-5.8,3.3-12.8,9.1c-0.6,0.5-12.4,11.4-25.1,23.4c-15.2,14.3-31.6,30-31.6,30.8c0,0.5-0.7,1.6-1.6,2.5
			c-5.5,6-6.4,7-6.4,7.4c0,0.3-1.9,2.9-4.2,5.8c-2.3,2.9-4.2,5.9-4.2,6.5c0,0.6-0.6,1.4-1.4,1.7c-0.8,0.3-1.4,1.1-1.4,1.8
			s-0.4,1.3-0.9,1.3s-0.9,0.6-0.9,1.3c0,0.7-0.8,2.3-1.7,3.5c-1,1.2-3.2,4.9-5,8.3c-5.7,10.6-6.8,12.6-7.7,13.3
			c-0.6,0.5-0.6,0.7,0,0.7c0.5,0,0.5,0.3-0.1,0.7c-0.6,0.4-2,3.2-3.1,6.3s-2.6,6.5-3.4,7.6c-0.7,1.1-2.2,4.9-3.3,8.4
			c-1.1,3.5-2.3,6.6-2.7,6.9c-0.6,0.4-3.5,10.6-7.1,24.2c-5.6,21.8-7.9,79.3-4.7,117.9c3.5,42.4,4.5,51.8,7.4,68.5
			c0.7,4.4,1.9,11.7,2.5,16.3c0.6,4.6,1.5,9.3,1.9,10.4c0.4,1.1,1.6,7,2.7,13.1c1.9,10.9,5.7,27.8,9.3,41.3
			c1.8,6.9,2.5,9.7,8.3,32.6c1.6,6.4,3.3,12.5,3.8,13.5c0.5,1,1.9,6.3,3.2,11.7c3,12.3,3.1,12.6,3.3,12.6c0.1,0,2.1,7.1,8.3,29.8
			c1.4,5.1,2.8,10,3.2,10.7c0.6,1.3,5,17.6,5.6,20.5c0.1,0.8,0.8,2.6,1.4,4c0.6,1.4,1.1,3.1,1.1,3.6c0,1.3,2.8,10.9,3.9,13.3
			c0.5,1,1.8,5.6,3.1,10.3c3.3,12.2,8.4,29.4,9.7,32.5c0.6,1.4,1.1,3.1,1.1,3.6c0,1.4,2.8,11.1,3.8,13c0.4,0.9,1.6,4.8,2.7,8.9
			c1,4,2.9,10.2,4.1,13.8c1.2,3.6,2.8,8.8,3.5,11.7s1.5,5.3,1.8,5.6c0.3,0.3,1.5,4,2.6,8.4c1.1,4.4,2.2,8.3,2.4,8.9
			c0.2,0.5,0.4,1.4,0.5,1.9c0.1,0.5,0.5,1.4,1,1.9c0.4,0.5,1.7,4.5,2.8,8.9c1.1,4.4,2.4,8.4,2.8,8.9c0.4,0.5,1.7,4.5,2.8,8.9
			c1.1,4.3,2.4,8.3,2.8,8.8c0.4,0.5,0.8,1.4,0.9,1.9c0.3,1.2,0.1,0.7,5,16.4c2.3,7.5,4.3,13.9,4.3,14.3c0,0.4,0.6,2,1.3,3.7
			c0.7,1.6,2.2,6.1,3.3,9.9c1.1,3.8,2.2,7.6,2.5,8.4c0.3,0.8,0.5,1.8,0.4,2.2c-0.1,0.4,0.2,1.3,0.7,1.9c0.5,0.6,1.6,3.6,2.5,6.7
			c0.9,3.1,2.1,6.9,2.8,8.4c0.7,1.5,2.4,6.6,3.8,11.2c1.4,4.6,2.6,8.6,2.7,8.9c0.1,0.3,0.4,1.1,0.7,1.9c1.2,2.8,7.9,23.9,9.1,28.7
			c0.7,2.7,1.6,4.9,2.1,4.9s0.6,0.6,0.3,1.4c-0.3,0.8-0.2,1.6,0.3,1.8c0.4,0.3,1.2,2.3,1.8,4.6c0.6,2.3,1.5,5.3,2.1,6.8
			c0.6,1.5,1.1,3.1,1.2,3.6c0.1,0.5,0.6,2,1.1,3.3c0.6,1.3,1.8,5.1,2.7,8.4c0.9,3.3,2.1,6.3,2.6,6.7c0.5,0.3,0.6,1,0.3,1.6
			c-0.3,0.5-0.2,1.2,0.2,1.5c0.5,0.3,1.6,3.5,2.5,7.1c0.9,3.6,2.1,6.5,2.5,6.5c0.4,0,0.5,0.4,0.2,1c-0.3,0.5-0.2,1.5,0.3,2.1
			c0.5,0.6,1.6,3.6,2.5,6.7c0.9,3.1,1.9,6,2.3,6.4c0.4,0.4,0.5,1.4,0.3,2.1c-0.3,0.7,0,1.3,0.6,1.3c0.6,0,0.9,0.6,0.6,1.3
			c-0.3,0.7-0.1,1.7,0.3,2.1c0.6,0.6,16.3,46.4,17.2,50.2c0.1,0.5,0.7,2,1.2,3.3c0.5,1.3,1.7,5.1,2.6,8.4c0.9,3.3,2,6.5,2.3,7
			c0.4,0.5,1.6,4.1,2.7,7.9c1.1,3.8,2.5,7.5,3,8.2c0.5,0.7,0.7,1.5,0.4,1.8c-0.3,0.3-0.2,1,0.2,1.6c0.5,0.6,1.6,3.5,2.4,6.6
			c0.9,3.1,1.9,6,2.2,6.5c0.3,0.5,0.6,1.4,0.6,1.9c0,0.5,0.5,2,1.1,3.3c0.6,1.3,1.8,5.1,2.7,8.4c0.9,3.3,1.9,6.3,2.2,6.5
			c0.5,0.4,5,14.3,5.9,18.2c0.1,0.5,0.5,1.4,0.8,1.9c0.3,0.5,1.5,4.1,2.6,7.9c1.1,3.8,2.6,8.2,3.3,9.8s2,5.7,3,9.3
			c0.9,3.6,2.1,6.8,2.6,7.2c0.5,0.4,0.6,0.9,0.3,1.3c-0.4,0.4-0.3,1.1,0.1,1.7c0.4,0.6,1.7,4.2,2.8,8c1.1,3.8,2.6,8.3,3.4,9.9
			c0.7,1.6,2,5.8,2.8,9.3c0.8,3.5,1.9,6.9,2.5,7.6c0.5,0.6,0.7,1.2,0.3,1.2c-0.4,0-0.3,0.5,0.3,1.2c0.5,0.6,1.7,3.9,2.5,7.2
			c0.9,3.3,1.8,6.7,2.1,7.5c0.3,0.8,0.6,1.6,0.7,1.9s0.4,1.1,0.7,1.9c0.8,1.9,5.4,17.8,5.7,19.6c0.1,0.8,0.5,1.9,0.8,2.4
			c0.5,0.8,4.3,14.1,4.8,16.7c0.1,0.5,0.4,1.4,0.8,1.9c0.3,0.5,1.5,4.7,2.6,9.3c1.1,4.6,2.4,9.2,2.8,10.2c1.1,2.4,5.9,21.8,9.4,37.5
			c1.5,6.8,2.9,12.7,3.2,13.2c0.3,0.4,1.3,6.4,2.4,13.3c1,6.9,2.4,15.2,3,18.5c2.9,15.7,1.1,33.8-4.3,44.4c-1.4,2.7-4.4,6-4.6,5.1
			c0-0.2-1.2,0.3-2.6,1.2c-5.4,3.5-16.8,2.7-25.8-1.8c-2.5-1.3-4.9-2.3-5.3-2.3s-3.3-1.7-6.4-3.7c-3.1-2-6.1-3.7-6.7-3.7
			c-0.6,0-1.6-0.8-2.1-1.9c-0.5-1-1.5-1.9-2.1-1.9c-0.6,0-4.8-2.9-9.3-6.5c-4.5-3.6-8.5-6.5-9-6.5c-0.4,0-1.9-1.5-3.3-3.3
			c-1.4-1.8-3-3.3-3.6-3.3c-1.1,0-5.2-3.8-22.5-21.1c-16.1-16-22-22.3-22-23.3c0-0.5-1.7-2.4-3.7-4.1c-2.1-1.7-3.7-3.5-3.7-3.9
			c0-0.4-4.5-5.9-9.9-12.3c-5.5-6.4-9.8-11.9-9.7-12.2c0.1-0.3-0.9-1.5-2.2-2.5c-1.3-1-2.4-2.3-2.4-2.7c0-0.5-2.7-4.4-6.1-8.7
			c-3.3-4.3-6.1-8.3-6.1-8.9c0-0.6-0.4-1-1-1c-0.5,0-1.3-1-1.8-2.1c-0.4-1.2-4.4-6.6-8.8-12.1c-4.4-5.5-7.7-10-7.4-10
			c0.3,0-0.3-0.7-1.4-1.5c-1.1-0.8-2.1-1.9-2.1-2.3c0-1-14.1-18.6-16.3-20.5c-0.8-0.6-1.4-1.7-1.4-2.3c0-0.6-1-1.9-2.3-2.7
			c-1.3-0.8-2.3-2.1-2.3-2.9c0-0.7-0.9-1.9-2-2.7c-1.1-0.8-2.7-2.6-3.6-4c-0.9-1.4-5-6.5-9.2-11.3s-7.4-8.6-7.1-8.6
			c0.3,0-1.2-1.5-3.3-3.4c-2.1-1.9-3.6-3.6-3.3-3.8c0.2-0.2-0.9-1.7-2.5-3.3c-1.6-1.6-3-3.2-3-3.5s-7.4-8.8-16.5-18.9
			c-9.1-10.1-16.6-18.6-16.6-19s-2.3-2.8-5.2-5.3c-2.9-2.5-5.5-5.3-5.8-6.2c-1.8-4.6-104.9-109-107.8-109c-0.5,0-3-2.3-5.5-5.1
			c-2.5-2.8-5-5.1-5.7-5.1c-0.7,0-3.1-2-5.3-4.4c-2.2-2.4-4.8-4.8-5.6-5.4c-0.9-0.5-7.6-6.3-15.1-12.8s-14-11.9-14.5-11.9
			s-1.7-1-2.5-2.3s-1.9-2.3-2.4-2.3c-0.7,0-18.5-13.7-22.3-17.3c-0.8-0.8-1.8-1.4-2.1-1.4s-4.7-3.1-9.7-6.8c-5-3.8-9.8-7.1-10.7-7.4
			c-0.9-0.3-1.6-1-1.6-1.6c0-0.5-0.4-1-1-1c-0.5,0-3.5-1.7-6.5-3.7c-3-2.1-5.9-3.7-6.5-3.7s-1-0.4-1-0.9s-0.6-0.9-1.4-0.9
			c-0.7,0-1.7-0.5-2.1-1.2c-0.4-0.6-2.2-1.9-4-2.9c-5.5-2.9-8.8-4.8-9.3-5.3c-1.6-1.6-31.1-15.6-33-15.7c-0.5,0-1.1-0.4-1.4-0.9
			c-0.3-0.5-3.7-1.8-7.6-3c-3.8-1.2-7.4-2.5-7.9-2.9c-2.5-1.8-26.5-5.7-35.4-5.7c-11.5-0.1-29.2,3.1-31.3,5.6
			c-0.3,0.3-2.1,1.4-4.1,2.4c-5.5,2.8-16,11.6-18.7,15.6c-0.5,0.8-3.2,4.4-6,8.1c-5.1,6.8-8.2,12-12.7,21.4c-6,12.8-9.1,19.7-9.2,21
			c-0.1,0.5-0.8,2.4-1.6,4.2c-0.8,1.8-1.7,4.4-2.1,5.8c-0.3,1.4-1.1,3.7-1.7,5.1c-0.6,1.4-1.1,3-1.2,3.5c-0.1,0.5-0.4,1.6-0.7,2.3
			c-0.3,0.8-1.5,4.8-2.6,8.9c-1.1,4.1-2.4,8.6-2.9,9.9c-1.2,3.1-4.9,19-8,34.3c-1.3,6.4-2.6,12.3-2.8,13.1c-0.3,0.8-0.6,2.2-0.8,3.3
			c-1,7.3-5.2,31.9-6,35.2c-0.5,2.2-1.6,9.7-2.4,16.6s-2.3,18.2-3.3,25.2c-1,6.9-2.2,17.4-2.8,23.3c-1.2,13-3.6,35.8-4.2,39.6
			c-0.2,1.5-1.3,16.2-2.3,32.6c-1,16.4-2.1,30.5-2.3,31.2c-0.2,0.8-0.5,3.5-0.5,6.1c-0.1,2.6-0.5,9.5-0.9,15.4
			c-0.4,5.9-1.2,22.3-1.8,36.4c-0.5,14.1-1.4,34.4-1.9,45.2c-2.7,58.5-2.7,60.4-5.6,232.6c-0.5,30-1.3,69.4-1.8,87.6
			c-0.5,18.2-1.4,49.2-1.9,69c-1.5,52.9-4.7,80.4-10.9,92.3c-0.7,1.3-1.2,3-1.3,3.7c-0.1,2.3-8.6,17.4-12.4,21.9
			c-15,17.9-37.3,20.9-63.5,8.5c-4.6-2.2-8.8-4.1-9.2-4.2c-0.4-0.1-3.8-2.3-7.6-4.8c-3.8-2.6-7.2-4.7-7.6-4.7
			c-0.4,0-1.2-0.7-1.8-1.6c-0.7-0.9-1.6-1.6-2.1-1.6c-1.2,0-17.6-13.3-24.6-19.9c-2.9-2.8-5.4-4.7-5.4-4.3c0,0.4-7.3-6.5-16.2-15.5
			c-8.9-8.9-16.1-16.5-15.9-16.8c0.2-0.3-2.1-3-5.2-5.9c-3.1-2.9-5.6-5.5-5.6-5.8c0-0.2-4.4-5.4-9.9-11.5
			c-5.4-6.1-9.8-11.3-9.7-11.7c0.1-0.3-0.9-1.4-2.2-2.5c-1.3-1-2.4-2.4-2.4-3.1c0-0.7-1.3-2.3-2.8-3.6c-1.5-1.3-2.8-2.6-2.8-2.9
			c0-0.3-2.7-3.9-6.1-7.9c-3.3-4.1-6.1-7.6-6.1-7.8c0-0.3-1-1.6-2.2-2.9c-3.9-4.4-5.2-6-5.2-6.5c0-0.3-3.4-4.8-7.6-10
			c-4.2-5.3-7.9-10.5-8.4-11.7c-0.4-1.2-1.2-2.1-1.8-2.1c-0.5,0-1.3-0.7-1.6-1.6c-0.3-0.9-2.4-4-4.6-6.9c-2.2-2.9-4-5.5-4-5.7
			c0-0.2-1.3-1.8-2.8-3.4c-1.5-1.6-2.8-3.5-2.8-4.1c0-0.6-1.7-3.2-3.7-5.7s-3.7-4.9-3.7-5.3c0-0.4-1.3-2-2.8-3.7
			c-1.5-1.7-2.8-3.6-2.8-4.2c0-0.6-0.3-1.3-0.7-1.4c-1-0.5-10.5-14.6-10.5-15.6c0-0.5-0.7-1.3-1.6-1.8c-0.9-0.5-1.3-1-0.9-1
			c0.4,0-1.4-2.9-4-6.5c-2.6-3.5-4.7-6.7-4.7-7c0-0.3-2.9-4.8-6.5-9.8c-3.6-5.1-6.5-9.6-6.5-10.1c0-0.5-0.7-1.2-1.5-1.5
			c-0.8-0.3-1.3-0.8-1-1.1c0.3-0.3-0.9-2.6-2.7-5.1c-1.8-2.5-3-4.6-2.8-4.6s-0.6-1.1-1.9-2.5c-1.3-1.4-2.3-2.9-2.3-3.5
			c0-0.6-2.1-4-4.7-7.5c-2.6-3.6-4.7-6.8-4.7-7.2c0-0.4-2.1-3.9-4.7-7.7c-2.6-3.8-4.7-7.3-4.7-7.9c0-0.5-0.4-1-0.9-1
			c-0.5,0-0.8-0.3-0.7-0.7c0.1-0.4-1.8-3.7-4.2-7.3c-2.4-3.7-4.4-6.9-4.4-7.3c0-0.4-1.5-2.9-3.3-5.6c-1.8-2.7-3.3-5.4-3.3-5.9
			c0-0.5-0.7-1.2-1.5-1.5c-0.8-0.3-1.2-1-0.9-1.5c0.3-0.5,0.1-0.9-0.4-0.9c-0.5,0-1-0.4-1-1c0-0.5-1.9-3.8-4.2-7.2
			c-2.3-3.4-4.2-6.8-4.2-7.4c0-0.6-0.4-1.2-0.8-1.2c-0.5,0-1.1-0.7-1.3-1.6c-0.7-2.3-4.6-9-5.8-9.8c-0.6-0.5-0.6-0.7,0-0.7
			c0.6,0,0.6-0.3,0-0.7c-1.3-0.9-9.6-14.7-14.1-23.5c-0.9-1.8-2-3.4-2.4-3.6c-0.4-0.2-0.7-0.9-0.7-1.6s-0.5-1.3-1.1-1.3
			c-0.6,0-0.8-0.2-0.5-0.5c0.3-0.3-0.5-2-1.7-3.9c-1.2-1.8-2.3-3.9-2.3-4.6c0-0.7-0.4-1.3-1-1.3c-0.5,0-1.6-1.5-2.4-3.4
			c-0.8-1.9-2.4-4.9-3.6-6.8c-2.1-3.2-5.8-9.9-9.5-16.9c-0.9-1.8-2-3.5-2.3-3.7c-0.3-0.3-1.8-2.7-3.3-5.5
			c-4.1-7.7-8.1-14.9-11.9-21.6c-1.9-3.3-4.2-7.5-5-9.3c-0.9-1.8-1.8-3.5-2.1-3.7c-0.4-0.4-3.3-5.5-6.5-11.6
			c-0.8-1.5-1.8-2.9-2.2-3.1c-0.4-0.2-0.7-0.8-0.7-1.4c0-0.6-1.2-3.1-2.8-5.5c-1.5-2.4-2.5-4.4-2.1-4.4c0.4,0,0.3-0.3-0.3-0.7
			c-0.9-0.7-2.5-3.4-8.6-15.1c-1.7-3.3-4.8-9-6.7-12.6c-4.7-8.6-14.4-26.9-17.1-32.2c-1.2-2.3-2.5-4.5-2.9-4.8
			c-0.4-0.3-0.7-0.9-0.6-1.2c0.1-0.3-1.2-3-2.9-6c-1.7-2.9-3.1-5.5-3.2-5.8c-0.3-1.5-4.8-9.9-5.6-10.5c-0.6-0.5-0.6-0.7,0-0.7
			s0.6-0.3,0-0.7c-0.5-0.4-1.9-2.6-3.1-4.9c-1.2-2.3-4-7.8-6.3-12.1c-2.3-4.4-5.1-10-6.2-12.6c-1.1-2.6-2.4-5-3-5.3
			c-0.6-0.4-0.6-0.7,0-0.7c0.6,0,0.6-0.3,0-0.7c-1.2-0.9-1.3-1.1-36.1-70.6c-28.7-57.2-35.2-70.6-35.1-71.9c0-0.3-0.3-0.8-0.7-1.1
			c-0.9-0.7-12.4-23.9-14.9-30.2c-1-2.4-2.1-4.4-2.5-4.4c-0.4,0-0.5-0.4-0.2-0.9c0.3-0.5,0.1-0.9-0.4-0.9s-1-0.4-1-1
			c0-0.5-1.6-4.2-3.6-8.2c-2-3.9-4.1-8.7-4.7-10.7c-0.6-1.9-1.5-3.5-2-3.5c-0.5,0-0.8-0.3-0.7-0.7c0.2-0.7-4.5-10.8-13.1-28.2
			c-2.4-4.9-4.4-9.1-4.4-9.3c0-0.3-2-4.5-4.3-9.3c-8.2-17-11.8-24.7-12.5-27c-0.4-1.3-1-2.5-1.3-2.8c-0.8-0.6-5.9-11.3-8.6-17.7
			c-1.2-2.8-2.5-5.4-3-5.7c-0.5-0.3-0.8-0.8-0.8-1.2c0.1-0.9-5.8-13.7-18.2-39.3c-3-6.2-5.4-11.4-5.4-11.7c0-0.3-3-6.6-6.6-14
			c-7.9-16.2-10.7-22.2-10.6-23c0-0.3-0.3-0.8-0.7-1.2c-1-0.7-20.3-39.6-21.8-44.1c-0.7-1.9-1.6-3.5-2-3.5c-0.4,0-0.5-0.4-0.2-0.9
			c0.3-0.5,0.2-0.9-0.2-0.9c-0.4,0-1.6-2.1-2.6-4.7c-1-2.6-2.2-4.7-2.6-4.7c-0.4,0-0.5-0.4-0.2-0.9c0.3-0.5,0.1-0.9-0.4-0.9
			c-0.5,0-0.9-0.3-0.8-0.7c0.2-0.9-3.9-9.9-4.8-10.5c-0.9-0.6-17.8-34.2-17.6-35.1c0.1-0.3-0.2-0.9-0.6-1.2
			c-0.9-0.7-3-4.5-17.2-31.8c-2.3-4.4-4.3-8.1-4.6-8.4c-0.3-0.3-1.7-3-3.3-6.1c-1.5-3.1-3-5.8-3.3-6.1c-0.6-0.6-4.7-8-6-10.9
			c-0.5-1.1-1.3-2.1-1.7-2.1c-0.4,0-0.5-0.4-0.2-0.9c0.3-0.5,0.1-0.9-0.4-0.9c-0.5,0-1-0.4-1-1c0-0.5-1.1-2.6-2.3-4.7
			c-1.3-2-2-3.7-1.6-3.7c0.4,0,0-0.5-0.9-1c-0.9-0.5-1.6-1.5-1.6-2.1c0-0.6-1.7-3.6-3.7-6.7s-3.7-6.1-3.7-6.7c0-0.6-0.7-1.3-1.5-1.6
			c-0.8-0.3-1.2-1-0.9-1.5c0.3-0.5,0.1-0.9-0.4-0.9c-0.5,0-1-0.5-1-1.1c0-0.6-1.7-3.5-3.7-6.5c-2.1-3-3.7-5.7-3.7-6
			c0-0.3-1.9-3.2-4.2-6.4c-2.3-3.2-4.2-6.2-4.2-6.7c0-0.5-0.8-1.3-1.9-2c-1-0.6-1.9-1.7-1.9-2.3c0-0.6-0.9-1.7-1.9-2.4
			c-1-0.7-1.7-1.5-1.5-1.9c1.9-3-19.1-21.6-24.3-21.6c-7.2,0-10,24.9-6,53.1c0.6,4.4,1.3,9,1.5,10.3c1.2,8.4,4.5,26.7,5.8,32.2
			c0.8,3.6,2.5,11.6,3.6,17.7c1.2,6.2,2.3,12,2.6,13.1c1.5,6,4.3,18.3,4.8,21.9c0.4,2.3,1,4.9,1.4,5.7c0.4,0.8,1.7,5.8,2.7,11.2
			c1.1,5.3,2.6,11.6,3.3,13.9c0.7,2.3,2.2,8.4,3.2,13.5c1,5.1,2.3,10.2,2.8,11.2c0.5,1,1.8,5.8,2.9,10.7c1.1,4.9,2.3,9.8,2.8,10.9
			c0.4,1.1,1.9,6.8,3.3,12.6c1.3,5.8,2.8,11.4,3.3,12.4c1,2.3,4.6,17.4,4.6,19.4c0,0.8,0.3,1.6,0.8,1.7c0.4,0.2,2.1,5.6,3.8,12
			c4.8,18.6,8.2,31.1,8.8,32.6c0.6,1.4,1.6,4.8,8.3,29.8c1.7,6.4,3.4,12.1,3.7,12.6c0.3,0.5,1.5,4.5,2.5,8.8
			c1.1,4.3,2.4,8.7,2.8,9.8c0.5,1,2,6.3,3.3,11.7c1.3,5.4,2.8,10.5,3.2,11.3s1.7,5.3,2.8,9.8c1.1,4.5,2.3,8.7,2.7,9.2
			s1.9,4.7,3.3,9.3c1.4,4.6,2.9,8.8,3.3,9.3c0.4,0.5,1.6,4.3,2.8,8.4c1.1,4.1,2.4,7.9,2.8,8.4c0.4,0.5,1.7,3.9,2.8,7.5
			c1.1,3.6,2.3,7.2,2.6,7.9c0.3,0.8,0.6,1.6,0.7,1.9s0.6,1.3,1.1,2.3c0.6,1,1.3,3,1.6,4.4c0.3,1.4,1.1,3.7,1.7,5.1s1.1,3,1.2,3.5
			c0.1,0.5,0.9,2.5,1.7,4.4c0.9,1.9,1.6,4,1.6,4.6c0,0.6,0.8,2.8,1.8,4.9c1,2.1,2.9,7.1,4.3,11.2c1.3,4.1,2.7,7.9,3.1,8.4
			c0.4,0.5,1.7,4.1,2.9,7.9c1.2,3.8,2.6,7.5,3.1,8.2c0.5,0.6,0.6,1.2,0.3,1.2c-0.3,0,0,0.9,0.8,2.1c0.8,1.1,1.5,2.6,1.5,3.1
			c0,0.6,0.7,2.7,1.6,4.7c0.9,2,1.5,4.1,1.4,4.8c-0.1,0.6,0.1,1.2,0.6,1.2c0.4,0,1.6,2.4,2.5,5.4c0.9,2.9,2.6,7.5,3.7,10
			c1.1,2.6,2.6,6.5,3.4,8.9c0.7,2.3,1.6,4.4,1.9,4.7c0.3,0.3,1.7,3.8,3.1,7.8c1.4,4.1,2.8,7.8,3.2,8.4c0.4,0.6,1.8,3.9,3,7.5
			c1.2,3.6,2.5,6.7,2.8,7c0.3,0.3,1.7,3.8,3.2,7.9c1.4,4.1,3.2,8.3,3.9,9.3c0.7,1,1.3,2.3,1.3,2.9c0,0.6,0.7,2.7,1.6,4.7
			c0.9,2,1.7,3.9,1.7,4.3c0.1,0.4,0.3,0.9,0.4,1.2c0.1,0.3,0.3,0.8,0.4,1.2c0.1,0.4,0.6,1.5,1.2,2.6c0.6,1,1.5,3.5,2.2,5.6
			c0.6,2.1,1.5,4.2,1.9,4.7c0.4,0.5,1.7,3.5,2.8,6.5c1.1,3.1,2.7,6.5,3.4,7.6c0.7,1.1,1.2,2.4,1.1,2.8c-0.1,0.4,0.5,2.3,1.3,4.1
			c1.9,4.2,3.8,8.7,4,9.3c0.1,0.3,0.8,1.9,1.6,3.7c3.1,6.8,3.9,8.9,3.6,9.7c-0.1,0.5,0.1,1.1,0.6,1.4c0.6,0.5,6.1,12.6,6.4,14.1
			c0.1,0.5,2.4,5.8,5.6,12.7c1.2,2.6,2.2,5.1,2.2,5.5c0,0.4,1.2,3.3,2.7,6.4c3.6,7.7,7.1,15.7,7.2,16.4c0.1,0.6,2.5,6.1,5.6,12.7
			c2.2,4.6,6.2,13.6,6.5,14.4c0.1,0.3,1.3,2.9,2.6,5.9c1.4,3,2.5,6.1,2.5,6.8c0,0.7,0.3,1.3,0.7,1.3c0.7,0,3.2,5.7,4.4,10
			c0.3,1.2,1,2.1,1.5,2.1c0.5,0,0.8,0.3,0.7,0.7c-0.1,0.4,0.7,2.5,1.9,4.6c1.1,2.2,2.1,4.6,2.1,5.4c0,0.8,0.4,1.4,0.9,1.4
			c0.5,0,0.9,0.3,0.8,0.7c-0.2,1,6.3,14.9,18.4,39.8c3,6.2,5.5,11.6,5.5,12.1c0,0.5,0.2,1.1,0.5,1.4c0.9,0.8,47,93.7,46.7,94
			c-0.1,0.2,0.2,0.7,0.8,1c0.6,0.4,3.4,5.2,6.3,10.8c2.9,5.6,6.9,13.3,8.9,17.2c2,3.8,4.6,8.7,5.6,10.7c1.1,2.1,2.4,4,2.9,4.4
			c0.5,0.4,0.7,0.7,0.3,0.7c-0.4,0,0.3,1.6,1.6,3.5c1.3,1.9,2.4,4,2.4,4.7c0,0.6,0.4,1.2,1,1.2c0.5,0,0.7,0.4,0.4,0.9
			c-0.3,0.5-0.2,0.9,0.2,0.9c0.4,0,1.8,2.3,3.1,5.1c1.3,2.8,2.7,5.1,3.1,5.1c0.4,0,0.5,0.4,0.2,1c-0.3,0.5-0.2,0.9,0.3,0.9
			c0.5,0,2,2.2,3.4,4.9c2.4,4.8,4.7,9,10.1,18c1.4,2.4,2.6,4.7,2.6,5.2s0.4,0.8,0.9,0.8c0.5,0,0.8,0.3,0.7,0.8
			c-0.1,0.4,1.6,3.5,3.7,6.9c2.2,3.4,4,6.5,4,6.9c0,0.4,1.7,3.3,3.7,6.4c2,3.1,3.7,6.1,3.7,6.7c0,0.6,0.7,1.3,1.5,1.7
			c0.8,0.3,1.3,0.8,1,1.1c-0.3,0.3,0.5,2.1,1.7,3.9c1.3,1.9,2.3,3.9,2.3,4.4c0,0.6,0.7,1.3,1.5,1.6c0.8,0.3,1.2,1,0.9,1.5
			c-0.3,0.5-0.1,0.9,0.4,0.9s1,0.4,1,1c0,0.5,1.9,3.8,4.2,7.2c2.3,3.4,4.2,6.7,4.2,7.3c0,0.6,0.7,1.3,1.5,1.7c0.8,0.3,1.3,0.8,1,1.1
			c-0.3,0.3,0.9,2.6,2.7,5.1c1.8,2.5,2.9,4.6,2.5,4.6c-0.4,0,0,0.5,0.9,1c0.9,0.5,1.6,1.6,1.6,2.3c0,0.7,0.4,1.4,0.9,1.4
			s0.9,0.5,0.9,1.2c0,0.7,1.9,3.8,4.2,7c2.3,3.2,3.9,5.8,3.5,5.8c-0.4,0,0,0.5,0.9,1c0.9,0.5,1.6,1.6,1.6,2.3c0,0.7,0.4,1.4,0.9,1.4
			s0.9,0.4,0.9,0.9c0,0.5,1.3,2.7,2.8,5c1.5,2.3,2.8,4.6,2.8,5.1s0.7,1.2,1.5,1.5c0.8,0.3,1.3,0.8,1,1.1c-0.3,0.3-0.1,1,0.3,1.6
			c2.9,3.5,11.2,15.5,11.1,16.1c-0.1,0.4,0.5,1,1.3,1.5c0.8,0.5,1.5,1.3,1.5,1.8s2.9,4.9,6.5,9.7c3.6,4.8,6.5,9.1,6.5,9.6
			c0,0.5,0.7,1.3,1.6,1.9c0.9,0.5,1.3,1,0.8,1c-0.4,0,0.8,2,2.8,4.5c4.9,6.1,8.7,11.2,8.8,12.1c0.1,0.4,0.9,1.3,1.8,1.9
			c1,0.7,1.7,1.6,1.7,2.1c0,0.5,3.1,4.8,6.8,9.5c3.8,4.7,6.9,8.9,6.9,9.3c0.1,0.4,1.2,1.6,2.5,2.6c1.3,1,2.4,2.3,2.4,2.9
			c0,0.6,0.6,1.7,1.4,2.5c2.6,2.8,15.9,18.9,16.8,20.4c0.5,0.8,2.1,2.5,3.5,3.7c1.4,1.2,2.6,2.7,2.6,3.2c0,0.5,1.7,2.4,3.7,4.2
			c2,1.7,3.6,3.5,3.5,3.9c-0.9,3,75.5,79.3,79.3,79.3c0.6,0,1.7,1,2.6,2.3c0.8,1.3,2.5,2.9,3.7,3.5c1.2,0.6,6.1,4.4,11,8.4
			c4.9,4,9.3,7.2,9.9,7.2c0.5,0,1,0.4,1,1c0,0.5,1,1.4,2.3,1.8s2.3,1.3,2.3,1.8c0,0.5,0.4,1,0.9,1c0.5,0,3.8,2.1,7.3,4.7
			s6.7,4.7,7,4.7c0.3,0,4.1,2.2,8.3,4.9c10.1,6.4,41.8,23.1,44,23.1c0.3,0,2.2,0.7,4.1,1.5c1.9,0.8,3.9,1.7,4.4,1.8
			c2.4,0.7,15.1,5.2,16.8,6c1,0.5,5.6,1.7,10.3,2.8c4.6,1.1,9.4,2.2,10.7,2.5c32.2,8.1,80.9,4.7,115.6-8c4.4-1.6,8.3-3,8.9-3.2
			c1.1-0.3,11.3-5.1,14-6.5c1-0.6,4.4-2.3,7.5-3.9c10-5.2,12.1-6.5,12.9-7.6c0.4-0.6,1.3-1.2,1.9-1.2c0.6,0,4-1.9,7.4-4.2
			c3.4-2.3,6.6-4.2,7.1-4.2c0.4,0,1.1-0.7,1.4-1.5c0.3-0.8,0.9-1.2,1.4-0.9c0.5,0.3,1.7-0.5,2.7-1.8c1-1.3,2.2-2.3,2.7-2.3
			c2.6,0,37.6-36.3,37.6-39c0-0.5,0.8-1.4,1.9-2c1-0.5,1.9-1.4,1.9-1.9c0-0.5,2.3-4,5.1-7.8c2.8-3.8,4.8-7.1,4.5-7.4
			c-0.3-0.3,0.1-0.8,1-1.1c0.8-0.3,1.5-1,1.5-1.5c0-0.5,1.4-3.1,3.2-5.7c3-4.6,5.1-8.2,10-17.4c1.2-2.3,2.6-4.5,3-4.8
			c0.4-0.3,0.7-0.8,0.7-1.2c-0.1-0.3,1-2.7,2.3-5.2c1.3-2.6,2.3-4.9,2.3-5.2c-0.1-0.3,0.3-0.9,0.8-1.2c0.5-0.3,1.7-2.9,2.8-5.7
			c1.1-2.8,3-7.3,4.3-10c1.3-2.7,2.4-5.3,2.4-5.8c0-0.5,0.9-2.5,1.9-4.5c1-2,2.7-6.3,3.6-9.6c0.9-3.3,2.4-7.2,3.1-8.7
			c0.8-1.5,2.1-5.7,3-9.3c0.9-3.6,1.9-6.9,2.3-7.5c0.4-0.5,1.6-4.7,2.8-9.3c1.1-4.6,2.4-8.8,2.9-9.4c0.5-0.6,0.6-1.3,0.3-1.6
			c-0.3-0.3-0.2-1.1,0.3-1.8c0.5-0.7,1.9-6,3-11.9c1.2-5.9,2.4-11.1,2.8-11.7c0.4-0.5,1.4-5.8,2.3-11.7c0.9-5.9,2-12.2,2.4-14
			c1.4-5.5,1.8-8.3,3.7-23.8c1-8.2,2.2-17.9,2.7-21.4c4.1-29.5,5.7-120.6,3-165.5c-1.1-17.5-1.9-26.5-6.3-69
			c-0.8-7.9-1.7-16.1-1.9-18.1c-0.2-2-0.6-4.4-0.9-5.2c-0.3-0.8-1.5-9.6-2.8-19.6c-1.3-10-2.9-21.3-3.6-25.1
			c-0.7-3.8-2-11.6-2.8-17.2c-0.8-5.6-2-13.2-2.8-16.9c-0.8-3.7-2.1-12.5-2.9-19.6c-0.8-7.1-2.1-16.1-2.8-19.9
			c-0.7-3.8-2-14.3-2.8-23.3c-0.8-9-1.9-21.3-2.5-27.5c-1.5-15.1-1.4-54.7,0.1-65.3c2.8-19.5,3.8-25.6,4.9-28.1
			c0.6-1.5,1.2-3.1,1.2-3.6c0.1-0.5,0.8-2.6,1.7-4.5c0.9-2,1.6-4.1,1.6-4.8s1.5-3.3,3.3-5.9c1.8-2.6,3.3-5,3.3-5.3
			c0-5,16.7-14.3,26.9-15c13.3-0.9,35.9,7.5,51.7,19.2c2.8,2.1,5.4,3.8,5.8,3.8c0.9,0,16.8,12.9,23.4,19c3.1,2.9,5.9,5.2,6.1,5.2
			c0.8,0,41.7,41.1,41.7,41.9c0,0.4,1.1,1.7,2.4,3c4.5,4.2,27.4,30.5,27.4,31.5c0,0.5,1.3,1.9,2.8,3s2.8,2.4,2.8,2.9
			c0,0.5,4.7,6.6,10.5,13.6c5.8,7,10.5,12.9,10.5,13.3c0,0.5,3.2,5,10.4,14.8c1.2,1.7,1.9,3,1.5,3.1c-0.4,0,0,0.5,0.9,1
			s1.6,1.4,1.6,2s3.1,5.1,7,10.2c3.8,5,7,9.4,7,9.8c0,0.4,0.6,1.3,1.4,2.1c3.4,3.6,17.3,21.6,17.3,22.3c0,0.4,1.3,1.7,2.8,2.8
			c1.5,1.1,2.8,2.5,2.8,3.1c0,4.7,83,88,87.7,88c0.5,0,1.5,0.9,2.3,2.1c0.8,1.2,2.1,2.1,2.8,2.1s1.9,0.8,2.5,1.9
			c0.6,1,1.5,1.9,1.9,1.9s4.2,2.6,8.4,5.8c4.2,3.2,8.3,6.2,9.2,6.8c0.9,0.5,4.8,3.1,8.6,5.8c3.9,2.7,7.5,4.9,8,4.9
			c0.5,0,0.9,0.4,0.9,0.9c0,0.5,0.4,0.9,1,0.9c0.5,0,2.9,1.3,5.1,2.8c2.3,1.6,5.6,3.5,7.4,4.2c1.8,0.7,3.3,1.8,3.3,2.3
			c0,0.5,0.5,0.9,1,0.9c0.6,0,6.5,2.8,13.3,6.1c6.8,3.4,14.4,7,16.9,8c2.6,1,5.9,2.4,7.5,3.1c4.5,2.1,18.9,7.1,27.2,9.4
			c4.2,1.2,8.1,2.4,8.6,2.7c0.5,0.3,5.7,1.4,11.4,2.4c5.8,1,14.3,2.5,18.9,3.3c21.6,3.8,62.4,1.6,88.1-4.8c10.5-2.6,21.9-6,24.7-7.3
			c3.2-1.5,12.6-5.3,14-5.7c2.5-0.6,22-9.9,22.8-10.9c0.3-0.3,1.1-0.8,1.9-1.1c0.8-0.3,4.7-2.9,8.7-5.8c4-2.9,7.6-5.2,8.1-5.2
			s1.9-1.3,3.1-2.8c1.3-1.5,2.8-2.8,3.3-2.8c1.2,0,16.9-16.9,16.9-18.2c0-0.5,1.3-2.3,2.8-4c1.5-1.7,2.8-3.3,2.8-3.5
			c0-0.2,1-2,2.2-3.9c1.2-1.9,2.2-3.8,2.3-4.3c0-0.5,0.4-1.1,0.8-1.4c4.4-3.2,17.2-37.8,20.3-55.1c0.8-4.4,2.1-11.3,2.9-15.4
			c5.9-31.6,2.8-120.2-5.7-158c-0.3-1.3-1.7-9-3.2-17.2c-3.3-18.2-6.8-35.7-9.3-45.7c-1-4.1-2.7-11.2-3.8-15.8
			c-1.1-4.6-3.2-13.4-4.7-19.6c-1.5-6.2-2.9-11.8-3-12.6c-0.1-0.8-0.5-1.9-0.8-2.4c-0.3-0.6-1.5-4.9-2.6-9.7s-2.2-9.1-2.5-9.6
			c-0.3-0.5-1.8-5.6-3.3-11.3c-3.1-11.7-3.1-11.7-3.9-13.6c-0.5-1.1-3.8-12.7-4.6-16.3c-0.1-0.5-0.5-1.4-0.8-1.9
			c-0.3-0.5-1.3-3.9-2.2-7.5c-0.9-3.6-2.2-8-2.9-9.8c-1.6-4.2-6.4-19.8-6.5-21c0-0.5-0.3-1.4-0.6-1.9c-0.3-0.5-1.5-4.1-2.6-7.9
			c-1.1-3.8-2.4-7.8-2.9-8.9c-0.5-1-1.8-5.2-2.9-9.3c-1.1-4.1-2.3-7.9-2.6-8.4c-0.3-0.5-0.6-1.1-0.7-1.4c-0.1-0.3-0.4-1.1-0.7-1.9
			c-0.3-0.8-1.5-4.5-2.6-8.4c-1.1-3.8-2.4-7.4-2.7-7.9c-0.4-0.5-1.6-4.3-2.8-8.4c-1.1-4.1-2.4-7.9-2.8-8.4c-0.4-0.5-1.6-4.1-2.7-7.9
			c-1.1-3.8-2.3-7.6-2.6-8.4c-0.3-0.8-0.6-1.6-0.7-1.9s-0.4-1.1-0.7-1.9c-0.3-0.8-1.5-4.1-2.6-7.5c-1.1-3.3-2.5-7.3-3.2-8.9
			c-0.7-1.5-2-5.5-2.9-8.9c-0.9-3.3-2-6.3-2.3-6.5c-0.4-0.3-1.6-3.6-2.8-7.5c-1.1-3.8-2.4-7.4-2.9-8c-0.4-0.6-0.5-1.3-0.2-1.6
			c0.3-0.3,0.2-1.1-0.4-1.8c-0.5-0.7-1.9-4.1-3.1-7.7c-1.1-3.6-2.5-7-2.9-7.6c-0.5-0.6-0.7-1.4-0.6-1.9c0.1-0.4-0.5-2.4-1.4-4.4
			s-1.6-4-1.6-4.4c0-0.4-0.5-1.9-1.1-3.4c-0.6-1.4-1.2-2.8-1.2-3.1c-0.1-0.3-0.4-1.1-0.7-1.9c-0.3-0.8-1.4-4.1-2.5-7.5
			c-1.1-3.3-2.3-6.9-2.8-7.9c-0.5-1-1.8-4.6-2.8-7.9c-1.1-3.3-2.2-6.7-2.4-7.5c-0.2-0.8-0.5-1.6-0.5-1.9c0-0.3-0.3-0.9-0.7-1.4
			c-0.4-0.5-1.7-3.9-2.8-7.5c-1.1-3.6-2.6-7.8-3.3-9.3c-0.7-1.5-1.9-5.1-2.8-7.9c-0.9-2.8-2-5.6-2.5-6.2c-0.5-0.6-0.7-1.4-0.6-1.9
			c0.1-0.4-0.4-2.3-1.2-4.1c-0.8-1.8-1.7-4.5-2.1-6.1c-0.4-1.5-1.3-4.1-1.9-5.6c-0.7-1.5-2.2-5.7-3.3-9.3c-1.2-3.6-2.4-6.9-2.7-7.5
			c-0.4-0.5-1.8-4.7-3.3-9.3c-1.4-4.6-2.9-8.8-3.2-9.3c-0.4-0.5-1.6-4.1-2.8-7.9c-1.2-3.8-2.5-7.4-2.9-7.9c-0.4-0.5-1.7-4.3-2.8-8.4
			s-2.4-7.7-2.7-7.9c-0.4-0.3-11.8-33.9-12.6-37.3c-0.1-0.3-0.4-1.1-0.7-1.9c-1.2-3-8-24-9.1-28.4c-0.7-2.6-1.6-5.2-2.1-5.8
			c-0.5-0.6-0.6-1.2-0.2-1.2c0.4,0,0.3-0.5-0.3-1.2c-0.5-0.6-1.7-3.9-2.5-7.2c-0.9-3.3-1.8-6.7-2.1-7.5c-0.3-0.8-0.6-1.6-0.6-1.9
			c-0.1-0.3-0.4-0.9-0.7-1.4c-0.3-0.5-1.5-4.7-2.7-9.3c-1.2-4.6-2.4-8.8-2.8-9.3c-0.4-0.5-1.6-4.9-2.7-9.8
			c-1.1-4.9-2.3-9.5-2.6-10.3c-0.3-0.8-0.6-1.6-0.7-1.9c-0.1-0.3-0.4-1.1-0.7-1.9s-1.4-5.6-2.5-10.7c-1.1-5.1-2.4-10.2-2.9-11.2
			c-0.8-1.7-3-11.7-7.4-34.5c-1-5.1-2.3-13.5-2.9-18.6c-0.6-5.1-1.4-10.2-1.9-11.4c-0.4-1.2-1.9-9.3-3.2-18.2
			c-1.3-8.8-2.6-16.3-2.8-16.6c-0.5-0.8-4.1-28.6-5.7-44.3c-0.2-2.1-0.8-6.7-1.3-10.3c-4-28.8-3.9-96.9,0.2-106.7
			c0.5-1.3,1-2.8,1.1-3.3c0.1-0.5,0.8-2.6,1.7-4.5c0.9-2,1.6-4.1,1.6-4.7c0-0.6,1.3-3.1,2.9-5.7c1.6-2.5,3.3-5.5,3.7-6.7
			c0.5-1.2,1.3-2.2,1.8-2.2c0.5,0,0.9-0.3,0.7-0.7c-1.2-3.8,33.9-38.9,37.7-37.7c0.4,0.1,0.7-0.2,0.7-0.7c0-0.5,1-1.4,2.3-1.8
			s2.3-1.3,2.3-1.8c0-0.5,0.4-1,0.9-1c0.5,0,3.3-1.7,6.3-3.8c5.2-3.7,13.7-8.9,19.3-12c1.5-0.8,3-1.8,3.3-2.2
			c0.9-1.2,33.9-18.1,36.4-18.6c0.7-0.2,1.5-0.5,1.8-0.8c0.3-0.3,3-1.5,6-2.6c3.1-1.1,6-2.4,6.5-2.8c2.1-1.6,34.5-12.1,34.5-11.2
			c0,0.1,1-0.3,2.1-0.9c1.2-0.6,6.8-2.1,12.6-3.3c5.7-1.2,12.1-2.6,14.2-3.2c4-1.1,28.9-4.5,38.2-5.3c3.1-0.3,9.4-0.9,14-1.4
			c11.3-1.2,53.4-1.1,66.2,0.1c13.9,1.3,16.6,1.6,24.7,2.2c14.3,1.2,34.1,3.4,35.4,4c0.8,0.3,1.8,0.6,2.3,0.7
			c6.1,0.8,28.8,5.3,29.8,6c0.5,0.3,5.1,1.7,10.3,3.1c13.8,3.7,36.1,12.6,38,15.2c0.4,0.6,0.7,0.6,0.7,0c0-0.6,0.3-0.6,0.7,0
			c0.4,0.5,3,2,5.8,3.2c2.8,1.2,5.6,2.8,6.2,3.5c0.6,0.7,1.5,1.2,2,1.2c0.5,0,4.1,2.3,8.1,5.1c3.9,2.8,7.1,4.9,7.1,4.6
			c0-1.2,15.2,11.9,25.5,21.9c11,10.7,23.9,25.1,23.9,26.7c0,0.5,0.8,1.4,1.9,2c1,0.6,1.9,1.8,1.9,2.5c0,0.7,0.9,1.8,1.9,2.4
			c1.1,0.6,1.7,1.3,1.4,1.5c-0.3,0.3,1.2,2.8,3.2,5.5c2,2.8,3.4,5,3,5c-0.4,0,0,0.5,0.9,1c0.9,0.5,1.6,1.6,1.6,2.3
			c0,0.7,0.4,1.4,0.9,1.4c0.5,0,0.9,0.6,0.9,1.4s0.4,1.4,0.9,1.4s0.8,0.3,0.7,0.7s0.9,2.5,2.3,4.6c1.4,2.2,2.5,4.4,2.5,4.9
			s0.4,1,0.9,1c0.5,0,0.8,0.3,0.7,0.7c-0.2,0.7,1.5,3.7,4.9,8.6c0.9,1.3,2.5,4.2,3.7,6.5c1.1,2.3,3.8,7.4,6,11.4
			c5.3,9.9,10.7,20.8,20,40.8c1.1,2.3,2.8,6.7,3.9,9.8c1.1,3.1,2.2,6.2,2.5,7c0.3,0.8,0.6,1.6,0.6,1.9c0.1,0.3,0.4,0.9,0.7,1.4
			c0.3,0.5,1.5,4.3,2.6,8.4c1.1,4.1,2.4,8.3,2.9,9.3c1.5,3.4,6.2,28.2,6.4,34c0,0.8,0.3,6.6,0.6,13.1s0.1,16.1-0.4,21.4
			c-1.8,17.6-3.9,34.8-5.3,42.9c-0.8,4.4-2.4,14.6-3.6,22.8c-2.3,15.6-8.6,43.6-10,44.1c-0.4,0.2-0.8,1-0.8,2
			c0,1.5-2.8,10.3-4.4,14.1c-0.3,0.8-0.5,1.7-0.5,2.1c0.1,0.4-0.2,0.7-0.7,0.7s-1.1,1.4-1.4,3c-0.3,1.7-1.6,5.1-2.8,7.7
			c-1.2,2.6-3.3,7-4.6,9.8c-3.6,7.9-9.5,18.4-12.1,21.8c-1.3,1.7-2.1,3.4-1.8,3.7c0.3,0.3,0.1,0.6-0.5,0.6c-0.6,0-1,0.3-0.9,0.7
			c0.2,0.7-9.2,14.3-11.9,17c-0.8,0.8-1.4,1.9-1.4,2.5c0,0.6-1,1.8-2.3,2.8c-1.3,1-2.1,2-1.8,2.3c0.3,0.3-1.2,2-3.3,3.8
			c-2.1,1.9-3.8,3.8-3.8,4.2c0,1.3-32.6,32.7-34,32.7c-0.7,0-1.9,1-2.8,2.3c-0.8,1.3-1.9,2.3-2.4,2.3c-0.5,0-4.6,2.8-9.1,6.2
			c-4.5,3.4-8.8,6.4-9.6,6.7c-0.8,0.3-4.1,2.3-7.4,4.6c-3.3,2.2-6.6,4-7.2,4s-1.2,0.4-1.2,0.8c0,1.1-21.9,11.8-23.2,11.3
			c-0.2-0.1-0.6,0.2-0.9,0.7c-0.3,0.4-2.9,1.8-5.7,3.1c-2.8,1.3-5.3,2.5-5.6,2.8c-0.5,0.6-6.1,3.6-15.8,8.6c-3.8,2-9.9,5.2-13.5,7.2
			c-3.6,2-7.8,4.2-9.4,5c-1.6,0.8-5.1,2.9-7.9,4.7c-2.8,1.8-5.6,3.3-6.2,3.3s-1.2,0.4-1.2,0.9c0,0.5-0.3,0.8-0.7,0.7
			s-3.7,1.8-7.3,4.2c-3.7,2.4-6.9,4.4-7.3,4.4s-4.6,2.7-9.4,6.1c-4.8,3.3-9.2,6.1-9.7,6.1s-1.3,0.7-1.8,1.6
			c-0.5,0.9-1.2,1.5-1.5,1.4c-0.6-0.3-14.2,9.7-15,11.1c-0.3,0.5-0.9,0.6-1.3,0.4c-0.4-0.3-1.4,0.3-2,1.2c-0.7,1-1.7,1.9-2.3,2.1
			c-6.3,2.2-29.6,27-34.2,36.3c-3.7,7.5-4.3,18.5-1.1,21c1,0.8,1.5,1.4,1.1,1.4c-0.9,0,2.3,3.8,3.2,3.8c0.4,0,2.5,1.3,4.8,2.8
			c24.2,16.3,117.8,17.5,189.8,2.4c0.8-0.2,2-0.5,2.8-0.8c0.8-0.3,5.4-1.6,10.3-2.8c12.8-3.3,40.7-12.4,44.5-14.6
			c1.9-1.1,9-3.7,12.1-4.4c1.2-0.3,2.1-0.8,2.1-1.2c0-0.4,2.7-1.7,6.1-2.9c3.3-1.2,6.1-2.5,6.1-2.9s0.3-0.7,0.7-0.6
			c1,0.2,22.9-10.7,23.8-11.8c0.4-0.5,0.7-0.6,0.7-0.3c0,0.4,2-0.6,4.4-2.1c2.4-1.5,4.9-2.8,5.6-2.8c0.7,0,1.2-0.4,1.2-0.9
			s0.5-0.9,1-0.9s3.8-1.8,7.2-4c3.4-2.2,6.9-4.3,7.7-4.6c0.8-0.3,5.1-3.1,9.5-6.2c4.4-3.1,8.3-5.7,8.7-5.7c0.4,0,4.6-2.9,9.4-6.5
			c4.8-3.6,9.1-6.5,9.6-6.5c0.5,0,1.4-0.8,1.9-1.9c0.5-1,1.4-1.9,2-1.9c1,0,6.4-4.3,16.8-13.3c3.4-3,6.5-5.4,7-5.4
			c0.4,0,2.6-2.1,4.8-4.7c2.2-2.6,4.3-4.5,4.7-4.3c0.8,0.5,37.4-36,37.4-37.4c0-0.6,2.1-2.9,4.7-5.2c2.6-2.3,4.7-4.6,4.7-5.1
			c0-0.5,1.3-2,2.8-3.3c1.5-1.3,2.8-2.6,2.8-3c0-0.3,3.2-4.5,7-9.1c3.9-4.7,7.7-9.4,8.6-10.4c0.8-1,1.5-2.1,1.5-2.3
			c0-0.3,2.8-4.3,6.3-9c3.5-4.7,6.4-9,6.4-9.6c0-0.5,0.4-1,0.9-1s0.9-0.4,0.9-0.9c0-0.8,6.9-11.7,9.3-14.7c0.5-0.6,0.9-1.4,0.9-1.7
			c0-0.3,1.4-2.7,3.1-5.4c1.7-2.7,3.8-6.1,4.5-7.6c3.9-7.8,7.5-14,8.5-14.7c0.6-0.4,0.7-0.7,0.2-0.7c-0.6,0-0.6-0.3,0-0.7
			c0.5-0.4,2-3,3.3-5.8c1.3-2.8,2.7-5.4,3.1-5.7c0.4-0.3,0.8-0.8,0.8-1.2c-0.1-1.2,2.2-6.8,4.5-11.3c1.3-2.6,3.2-6.8,4.2-9.3
			c1-2.6,2.2-5.5,2.8-6.5c0.6-1,1.9-4.3,2.8-7.2c1-2.9,2.1-5.4,2.5-5.4c0.4,0,0.5-0.4,0.2-0.9c-0.3-0.5-0.1-1.6,0.4-2.6
			c1.2-2.1,8-22.7,9.4-28.2c0.6-2.3,1.3-4.8,1.6-5.6c1.9-4.7,6.8-26.7,9.7-42.9c6.9-39.3,8.3-111.2,2.7-133.3
			c-0.5-1.8-1.7-9.3-2.8-16.8c-1.1-7.4-2.3-14.5-2.8-15.6c-0.5-1.2-1.8-6.4-2.8-11.7c-1.1-5.2-2.7-12.1-3.7-15.1
			c-4.1-13.4-10.5-32.8-11.2-34.5c-0.5-1-2-5.2-3.4-9.3c-1.4-4.1-2.8-7.9-3.3-8.5c-0.4-0.6-1.4-2.8-2.2-5.1
			c-0.8-2.2-2.2-5.8-3.2-7.8c-2.6-5.5-5.5-12.6-5.5-13.3c0-0.3-0.3-0.8-0.7-1.1c-1-0.8-11.9-22.8-11.7-23.6c0.1-0.4-0.2-0.7-0.7-0.7
			s-0.9-0.5-0.9-1.2c0-0.6-1.7-3.8-3.7-7c-2-3.2-3.7-6.2-3.7-6.6c0-0.4-1.7-3.3-3.7-6.4c-2.1-3.2-3.7-6.2-3.7-6.7c0-0.5-0.5-1-1.1-1
			c-0.6,0-0.8-0.3-0.5-0.6c0.3-0.3-0.7-2.3-2.2-4.3c-1.5-2.1-2.7-4.3-2.7-4.9c0-0.6-0.6-1.4-1.3-1.6c-0.7-0.3-2-2-2.8-3.8
			c-0.9-1.8-2-3.3-2.5-3.3c-0.5,0-0.8-0.3-0.7-0.8c0.1-0.4-2-3.7-4.7-7.4s-4.9-7-4.9-7.5s-0.6-1.2-1.4-1.5c-0.8-0.3-1.3-0.9-1.2-1.3
			c0.1-0.4-3.7-5.8-8.6-11.9c-4.9-6.1-8.7-11.4-8.6-11.8c0.1-0.4-0.8-1.5-2.1-2.5c-1.3-1-2.3-2.1-2.3-2.5c0-0.8-6.5-8.5-16.5-19.7
			c-3.7-4.2-6.8-8-6.8-8.4c0-0.4-2.3-2.8-5.1-5.3c-2.8-2.5-5.1-5-5.1-5.6c0-1.4-37.5-38.8-38.9-38.8c-0.6,0-2.6-1.9-4.5-4.2
			c-1.9-2.3-4-4.2-4.6-4.2c-0.6,0-2.9-1.9-5-4.2c-2.1-2.3-4.1-4.2-4.3-4.2c-0.3,0-5.1-3.9-10.8-8.6c-5.7-4.7-10.4-8.4-10.5-8.2
			c-0.1,0.2-4.5-3.1-9.9-7.3c-5.4-4.2-10.7-8.1-11.9-8.5s-2.1-1.3-2.1-1.9s-0.2-0.9-0.6-0.6c-0.3,0.3-3.7-1.7-7.6-4.5
			c-3.9-2.8-7.4-5.1-7.8-5.1c-0.4,0-3.8-2-7.5-4.4c-3.7-2.4-7.1-4.3-7.5-4.2c-0.4,0.1-0.8-0.2-0.8-0.7s-0.4-0.9-1-0.9
			c-0.5,0-3.2-1.4-5.8-3.1c-2.7-1.7-11.6-6.3-19.8-10.3c-19.1-9.3-20.4-9.9-32.2-14.6c-12.7-5.1-13.4-5.3-14.1-5.2
			c-0.3,0.1-1.1-0.4-1.9-1c-0.7-0.6-4.7-2-8.8-3.1s-7.9-2.4-8.4-2.8c-0.5-0.4-4.5-1.6-8.9-2.7c-4.4-1.1-8.8-2.4-9.8-2.8
			c-1-0.5-6.1-1.7-11.2-2.8c-5.1-1.1-10-2.2-10.7-2.5c-0.8-0.3-2-0.6-2.8-0.7c-0.8-0.1-2.2-0.5-3.3-0.8
			C2065,238.7,1999.9,233.8,1966.3,235.3"/>
		<path class="st1" d="M1966.3,235.3c-7.3,0.3-30.1,2-35.4,2.7c-31.2,3.8-69.1,11.4-91.4,18.1c-3.3,1-9.6,2.7-14,3.8
			s-8.3,2.3-8.9,2.7c-0.5,0.4-4.1,1.6-8.1,2.7c-3.9,1.1-8.4,2.6-10,3.4c-1.6,0.8-5.7,2.2-9,3.2c-3.4,1-6.6,2.1-7.2,2.6
			s-3.4,1.6-6.2,2.5s-6,2.1-7,2.7c-1,0.6-4.6,2.1-7.9,3.3c-3.3,1.2-8.8,3.4-12.1,4.9c-9.6,4.5-13.2,6-18.6,8.3
			c-2.8,1.2-5.3,2.4-5.6,2.8c-0.3,0.4-3.2,1.7-6.5,3c-3.3,1.3-9.2,4.1-13,6.2c-3.8,2.1-8.7,4.7-10.7,5.7c-2.1,1-6.2,3.3-9.3,5
			c-3.1,1.7-7.5,4.1-9.8,5.3c-2.3,1.2-4.4,2.5-4.8,2.9c-0.3,0.4-2.6,1.8-5.1,3c-5.6,2.8-8.4,4.4-16.4,9.5c-3.4,2.2-6.5,4-6.9,4
			s-2.8,1.4-5.4,3.1c-2.6,1.7-7.7,4.7-11.3,6.7c-3.6,1.9-7,3.9-7.6,4.4c-0.6,0.5-3.5,2.1-6.5,3.6c-7.8,4-11,5.9-11.4,6.7
			c-0.2,0.4-0.7,0.7-1.2,0.7c-0.5,0-3.3,1.7-6.3,3.7c-3,2-5.7,3.4-6,3.1c-0.3-0.3-0.6-0.1-0.6,0.5s-1,1.5-2.3,2s-2.3,1.3-2.3,1.8
			c0,0.5-0.4,1-1,1c-1.1,0-5.8,3.3-12.8,9.1c-0.6,0.5-12.4,11.4-25.1,23.4c-15.2,14.3-31.6,30-31.6,30.8c0,0.5-0.7,1.6-1.6,2.5
			c-5.5,6-6.4,7-6.4,7.4c0,0.3-1.9,2.9-4.2,5.8c-2.3,2.9-4.2,5.9-4.2,6.5c0,0.6-0.6,1.4-1.4,1.7c-0.8,0.3-1.4,1.1-1.4,1.8
			s-0.4,1.3-0.9,1.3s-0.9,0.6-0.9,1.3c0,0.7-0.8,2.3-1.7,3.5c-1,1.2-3.2,4.9-5,8.3c-5.7,10.6-6.8,12.6-7.7,13.3
			c-0.6,0.5-0.6,0.7,0,0.7c0.5,0,0.5,0.3-0.1,0.7c-0.6,0.4-2,3.2-3.1,6.3s-2.6,6.5-3.4,7.6c-0.7,1.1-2.2,4.9-3.3,8.4
			c-1.1,3.5-2.3,6.6-2.7,6.9c-0.6,0.4-3.5,10.6-7.1,24.2c-5.6,21.8-7.9,79.3-4.7,117.9c3.5,42.4,4.5,51.8,7.4,68.5
			c0.7,4.4,1.9,11.7,2.5,16.3c0.6,4.6,1.5,9.3,1.9,10.4c0.4,1.1,1.6,7,2.7,13.1c1.9,10.9,5.7,27.8,9.3,41.3
			c1.8,6.9,2.5,9.7,8.3,32.6c1.6,6.4,3.3,12.5,3.8,13.5c0.5,1,1.9,6.3,3.2,11.7c3,12.3,3.1,12.6,3.3,12.6c0.1,0,2.1,7.1,8.3,29.8
			c1.4,5.1,2.8,10,3.2,10.7c0.6,1.3,5,17.6,5.6,20.5c0.1,0.8,0.8,2.6,1.4,4c0.6,1.4,1.1,3.1,1.1,3.6c0,1.3,2.8,10.9,3.9,13.3
			c0.5,1,1.8,5.6,3.1,10.3c3.3,12.2,8.4,29.4,9.7,32.5c0.6,1.4,1.1,3.1,1.1,3.6c0,1.4,2.8,11.1,3.8,13c0.4,0.9,1.6,4.8,2.7,8.9
			c1,4,2.9,10.2,4.1,13.8c1.2,3.6,2.8,8.8,3.5,11.7s1.5,5.3,1.8,5.6c0.3,0.3,1.5,4,2.6,8.4c1.1,4.4,2.2,8.3,2.4,8.9
			c0.2,0.5,0.4,1.4,0.5,1.9c0.1,0.5,0.5,1.4,1,1.9c0.4,0.5,1.7,4.5,2.8,8.9c1.1,4.4,2.4,8.4,2.8,8.9c0.4,0.5,1.7,4.5,2.8,8.9
			c1.1,4.3,2.4,8.3,2.8,8.8c0.4,0.5,0.8,1.4,0.9,1.9c0.3,1.2,0.1,0.7,5,16.4c2.3,7.5,4.3,13.9,4.3,14.3c0,0.4,0.6,2,1.3,3.7
			c0.7,1.6,2.2,6.1,3.3,9.9c1.1,3.8,2.2,7.6,2.5,8.4c0.3,0.8,0.5,1.8,0.4,2.2c-0.1,0.4,0.2,1.3,0.7,1.9c0.5,0.6,1.6,3.6,2.5,6.7
			c0.9,3.1,2.1,6.9,2.8,8.4c0.7,1.5,2.4,6.6,3.8,11.2c1.4,4.6,2.6,8.6,2.7,8.9c0.1,0.3,0.4,1.1,0.7,1.9c1.2,2.8,7.9,23.9,9.1,28.7
			c0.7,2.7,1.6,4.9,2.1,4.9s0.6,0.6,0.3,1.4c-0.3,0.8-0.2,1.6,0.3,1.8c0.4,0.3,1.2,2.3,1.8,4.6c0.6,2.3,1.5,5.3,2.1,6.8
			c0.6,1.5,1.1,3.1,1.2,3.6c0.1,0.5,0.6,2,1.1,3.3c0.6,1.3,1.8,5.1,2.7,8.4c0.9,3.3,2.1,6.3,2.6,6.7c0.5,0.3,0.6,1,0.3,1.6
			c-0.3,0.5-0.2,1.2,0.2,1.5c0.5,0.3,1.6,3.5,2.5,7.1c0.9,3.6,2.1,6.5,2.5,6.5c0.4,0,0.5,0.4,0.2,1c-0.3,0.5-0.2,1.5,0.3,2.1
			c0.5,0.6,1.6,3.6,2.5,6.7c0.9,3.1,1.9,6,2.3,6.4c0.4,0.4,0.5,1.4,0.3,2.1c-0.3,0.7,0,1.3,0.6,1.3c0.6,0,0.9,0.6,0.6,1.3
			c-0.3,0.7-0.1,1.7,0.3,2.1c0.6,0.6,16.3,46.4,17.2,50.2c0.1,0.5,0.7,2,1.2,3.3c0.5,1.3,1.7,5.1,2.6,8.4c0.9,3.3,2,6.5,2.3,7
			c0.4,0.5,1.6,4.1,2.7,7.9c1.1,3.8,2.5,7.5,3,8.2c0.5,0.7,0.7,1.5,0.4,1.8c-0.3,0.3-0.2,1,0.2,1.6c0.5,0.6,1.6,3.5,2.4,6.6
			c0.9,3.1,1.9,6,2.2,6.5c0.3,0.5,0.6,1.4,0.6,1.9c0,0.5,0.5,2,1.1,3.3c0.6,1.3,1.8,5.1,2.7,8.4c0.9,3.3,1.9,6.3,2.2,6.5
			c0.5,0.4,5,14.3,5.9,18.2c0.1,0.5,0.5,1.4,0.8,1.9c0.3,0.5,1.5,4.1,2.6,7.9c1.1,3.8,2.6,8.2,3.3,9.8s2,5.7,3,9.3
			c0.9,3.6,2.1,6.8,2.6,7.2c0.5,0.4,0.6,0.9,0.3,1.3c-0.4,0.4-0.3,1.1,0.1,1.7c0.4,0.6,1.7,4.2,2.8,8c1.1,3.8,2.6,8.3,3.4,9.9
			c0.7,1.6,2,5.8,2.8,9.3c0.8,3.5,1.9,6.9,2.5,7.6c0.5,0.6,0.7,1.2,0.3,1.2c-0.4,0-0.3,0.5,0.3,1.2c0.5,0.6,1.7,3.9,2.5,7.2
			c0.9,3.3,1.8,6.7,2.1,7.5c0.3,0.8,0.6,1.6,0.7,1.9s0.4,1.1,0.7,1.9c0.8,1.9,5.4,17.8,5.7,19.6c0.1,0.8,0.5,1.9,0.8,2.4
			c0.5,0.8,4.3,14.1,4.8,16.7c0.1,0.5,0.4,1.4,0.8,1.9c0.3,0.5,1.5,4.7,2.6,9.3c1.1,4.6,2.4,9.2,2.8,10.2c1.1,2.4,5.9,21.8,9.4,37.5
			c1.5,6.8,2.9,12.7,3.2,13.2c0.3,0.4,1.3,6.4,2.4,13.3c1,6.9,2.4,15.2,3,18.5c2.9,15.7,1.1,33.8-4.3,44.4c-1.4,2.7-4.4,6-4.6,5.1
			c0-0.2-1.2,0.3-2.6,1.2c-5.4,3.5-16.8,2.7-25.8-1.8c-2.5-1.3-4.9-2.3-5.3-2.3s-3.3-1.7-6.4-3.7c-3.1-2-6.1-3.7-6.7-3.7
			c-0.6,0-1.6-0.8-2.1-1.9c-0.5-1-1.5-1.9-2.1-1.9c-0.6,0-4.8-2.9-9.3-6.5c-4.5-3.6-8.5-6.5-9-6.5c-0.4,0-1.9-1.5-3.3-3.3
			c-1.4-1.8-3-3.3-3.6-3.3c-1.1,0-5.2-3.8-22.5-21.1c-16.1-16-22-22.3-22-23.3c0-0.5-1.7-2.4-3.7-4.1c-2.1-1.7-3.7-3.5-3.7-3.9
			c0-0.4-4.5-5.9-9.9-12.3c-5.5-6.4-9.8-11.9-9.7-12.2c0.1-0.3-0.9-1.5-2.2-2.5c-1.3-1-2.4-2.3-2.4-2.7c0-0.5-2.7-4.4-6.1-8.7
			c-3.3-4.3-6.1-8.3-6.1-8.9c0-0.6-0.4-1-1-1c-0.5,0-1.3-1-1.8-2.1c-0.4-1.2-4.4-6.6-8.8-12.1c-4.4-5.5-7.7-10-7.4-10
			c0.3,0-0.3-0.7-1.4-1.5c-1.1-0.8-2.1-1.9-2.1-2.3c0-1-14.1-18.6-16.3-20.5c-0.8-0.6-1.4-1.7-1.4-2.3c0-0.6-1-1.9-2.3-2.7
			c-1.3-0.8-2.3-2.1-2.3-2.9c0-0.7-0.9-1.9-2-2.7c-1.1-0.8-2.7-2.6-3.6-4c-0.9-1.4-5-6.5-9.2-11.3s-7.4-8.6-7.1-8.6
			c0.3,0-1.2-1.5-3.3-3.4c-2.1-1.9-3.6-3.6-3.3-3.8c0.2-0.2-0.9-1.7-2.5-3.3c-1.6-1.6-3-3.2-3-3.5s-7.4-8.8-16.5-18.9
			c-9.1-10.1-16.6-18.6-16.6-19s-2.3-2.8-5.2-5.3c-2.9-2.5-5.5-5.3-5.8-6.2c-1.8-4.6-104.9-109-107.8-109c-0.5,0-3-2.3-5.5-5.1
			c-2.5-2.8-5-5.1-5.7-5.1c-0.7,0-3.1-2-5.3-4.4c-2.2-2.4-4.8-4.8-5.6-5.4c-0.9-0.5-7.6-6.3-15.1-12.8s-14-11.9-14.5-11.9
			s-1.7-1-2.5-2.3s-1.9-2.3-2.4-2.3c-0.7,0-18.5-13.7-22.3-17.3c-0.8-0.8-1.8-1.4-2.1-1.4s-4.7-3.1-9.7-6.8c-5-3.8-9.8-7.1-10.7-7.4
			c-0.9-0.3-1.6-1-1.6-1.6c0-0.5-0.4-1-1-1c-0.5,0-3.5-1.7-6.5-3.7c-3-2.1-5.9-3.7-6.5-3.7s-1-0.4-1-0.9s-0.6-0.9-1.4-0.9
			c-0.7,0-1.7-0.5-2.1-1.2c-0.4-0.6-2.2-1.9-4-2.9c-5.5-2.9-8.8-4.8-9.3-5.3c-1.6-1.6-31.1-15.6-33-15.7c-0.5,0-1.1-0.4-1.4-0.9
			c-0.3-0.5-3.7-1.8-7.6-3c-3.8-1.2-7.4-2.5-7.9-2.9c-2.5-1.8-26.5-5.7-35.4-5.7c-11.5-0.1-29.2,3.1-31.3,5.6
			c-0.3,0.3-2.1,1.4-4.1,2.4c-5.5,2.8-16,11.6-18.7,15.6c-0.5,0.8-3.2,4.4-6,8.1c-5.1,6.8-8.2,12-12.7,21.4c-6,12.8-9.1,19.7-9.2,21
			c-0.1,0.5-0.8,2.4-1.6,4.2c-0.8,1.8-1.7,4.4-2.1,5.8c-0.3,1.4-1.1,3.7-1.7,5.1c-0.6,1.4-1.1,3-1.2,3.5c-0.1,0.5-0.4,1.6-0.7,2.3
			c-0.3,0.8-1.5,4.8-2.6,8.9c-1.1,4.1-2.4,8.6-2.9,9.9c-1.2,3.1-4.9,19-8,34.3c-1.3,6.4-2.6,12.3-2.8,13.1c-0.3,0.8-0.6,2.2-0.8,3.3
			c-1,7.3-5.2,31.9-6,35.2c-0.5,2.2-1.6,9.7-2.4,16.6s-2.3,18.2-3.3,25.2c-1,6.9-2.2,17.4-2.8,23.3c-1.2,13-3.6,35.8-4.2,39.6
			c-0.2,1.5-1.3,16.2-2.3,32.6c-1,16.4-2.1,30.5-2.3,31.2c-0.2,0.8-0.5,3.5-0.5,6.1c-0.1,2.6-0.5,9.5-0.9,15.4
			c-0.4,5.9-1.2,22.3-1.8,36.4c-0.5,14.1-1.4,34.4-1.9,45.2c-2.7,58.5-2.7,60.4-5.6,232.6c-0.5,30-1.3,69.4-1.8,87.6
			c-0.5,18.2-1.4,49.2-1.9,69c-1.5,52.9-4.7,80.4-10.9,92.3c-0.7,1.3-1.2,3-1.3,3.7c-0.1,2.3-8.6,17.4-12.4,21.9
			c-15,17.9-37.3,20.9-63.5,8.5c-4.6-2.2-8.8-4.1-9.2-4.2c-0.4-0.1-3.8-2.3-7.6-4.8c-3.8-2.6-7.2-4.7-7.6-4.7
			c-0.4,0-1.2-0.7-1.8-1.6c-0.7-0.9-1.6-1.6-2.1-1.6c-1.2,0-17.6-13.3-24.6-19.9c-2.9-2.8-5.4-4.7-5.4-4.3c0,0.4-7.3-6.5-16.2-15.5
			c-8.9-8.9-16.1-16.5-15.9-16.8c0.2-0.3-2.1-3-5.2-5.9c-3.1-2.9-5.6-5.5-5.6-5.8c0-0.2-4.4-5.4-9.9-11.5
			c-5.4-6.1-9.8-11.3-9.7-11.7c0.1-0.3-0.9-1.4-2.2-2.5c-1.3-1-2.4-2.4-2.4-3.1c0-0.7-1.3-2.3-2.8-3.6c-1.5-1.3-2.8-2.6-2.8-2.9
			c0-0.3-2.7-3.9-6.1-7.9c-3.3-4.1-6.1-7.6-6.1-7.8c0-0.3-1-1.6-2.2-2.9c-3.9-4.4-5.2-6-5.2-6.5c0-0.3-3.4-4.8-7.6-10
			c-4.2-5.3-7.9-10.5-8.4-11.7c-0.4-1.2-1.2-2.1-1.8-2.1c-0.5,0-1.3-0.7-1.6-1.6c-0.3-0.9-2.4-4-4.6-6.9c-2.2-2.9-4-5.5-4-5.7
			c0-0.2-1.3-1.8-2.8-3.4c-1.5-1.6-2.8-3.5-2.8-4.1c0-0.6-1.7-3.2-3.7-5.7s-3.7-4.9-3.7-5.3c0-0.4-1.3-2-2.8-3.7
			c-1.5-1.7-2.8-3.6-2.8-4.2c0-0.6-0.3-1.3-0.7-1.4c-1-0.5-10.5-14.6-10.5-15.6c0-0.5-0.7-1.3-1.6-1.8c-0.9-0.5-1.3-1-0.9-1
			c0.4,0-1.4-2.9-4-6.5c-2.6-3.5-4.7-6.7-4.7-7c0-0.3-2.9-4.8-6.5-9.8c-3.6-5.1-6.5-9.6-6.5-10.1c0-0.5-0.7-1.2-1.5-1.5
			c-0.8-0.3-1.3-0.8-1-1.1c0.3-0.3-0.9-2.6-2.7-5.1c-1.8-2.5-3-4.6-2.8-4.6s-0.6-1.1-1.9-2.5c-1.3-1.4-2.3-2.9-2.3-3.5
			c0-0.6-2.1-4-4.7-7.5c-2.6-3.6-4.7-6.8-4.7-7.2c0-0.4-2.1-3.9-4.7-7.7c-2.6-3.8-4.7-7.3-4.7-7.9c0-0.5-0.4-1-0.9-1
			c-0.5,0-0.8-0.3-0.7-0.7c0.1-0.4-1.8-3.7-4.2-7.3c-2.4-3.7-4.4-6.9-4.4-7.3c0-0.4-1.5-2.9-3.3-5.6c-1.8-2.7-3.3-5.4-3.3-5.9
			c0-0.5-0.7-1.2-1.5-1.5c-0.8-0.3-1.2-1-0.9-1.5c0.3-0.5,0.1-0.9-0.4-0.9c-0.5,0-1-0.4-1-1c0-0.5-1.9-3.8-4.2-7.2
			c-2.3-3.4-4.2-6.8-4.2-7.4c0-0.6-0.4-1.2-0.8-1.2c-0.5,0-1.1-0.7-1.3-1.6c-0.7-2.3-4.6-9-5.8-9.8c-0.6-0.5-0.6-0.7,0-0.7
			c0.6,0,0.6-0.3,0-0.7c-1.3-0.9-9.6-14.7-14.1-23.5c-0.9-1.8-2-3.4-2.4-3.6c-0.4-0.2-0.7-0.9-0.7-1.6s-0.5-1.3-1.1-1.3
			c-0.6,0-0.8-0.2-0.5-0.5c0.3-0.3-0.5-2-1.7-3.9c-1.2-1.8-2.3-3.9-2.3-4.6c0-0.7-0.4-1.3-1-1.3c-0.5,0-1.6-1.5-2.4-3.4
			c-0.8-1.9-2.4-4.9-3.6-6.8c-2.1-3.2-5.8-9.9-9.5-16.9c-0.9-1.8-2-3.5-2.3-3.7c-0.3-0.3-1.8-2.7-3.3-5.5
			c-4.1-7.7-8.1-14.9-11.9-21.6c-1.9-3.3-4.2-7.5-5-9.3c-0.9-1.8-1.8-3.5-2.1-3.7c-0.4-0.4-3.3-5.5-6.5-11.6
			c-0.8-1.5-1.8-2.9-2.2-3.1c-0.4-0.2-0.7-0.8-0.7-1.4c0-0.6-1.2-3.1-2.8-5.5c-1.5-2.4-2.5-4.4-2.1-4.4c0.4,0,0.3-0.3-0.3-0.7
			c-0.9-0.7-2.5-3.4-8.6-15.1c-1.7-3.3-4.8-9-6.7-12.6c-4.7-8.6-14.4-26.9-17.1-32.2c-1.2-2.3-2.5-4.5-2.9-4.8
			c-0.4-0.3-0.7-0.9-0.6-1.2c0.1-0.3-1.2-3-2.9-6c-1.7-2.9-3.1-5.5-3.2-5.8c-0.3-1.5-4.8-9.9-5.6-10.5c-0.6-0.5-0.6-0.7,0-0.7
			s0.6-0.3,0-0.7c-0.5-0.4-1.9-2.6-3.1-4.9c-1.2-2.3-4-7.8-6.3-12.1c-2.3-4.4-5.1-10-6.2-12.6c-1.1-2.6-2.4-5-3-5.3
			c-0.6-0.4-0.6-0.7,0-0.7c0.6,0,0.6-0.3,0-0.7c-1.2-0.9-1.3-1.1-36.1-70.6c-28.7-57.2-35.2-70.6-35.1-71.9c0-0.3-0.3-0.8-0.7-1.1
			c-0.9-0.7-12.4-23.9-14.9-30.2c-1-2.4-2.1-4.4-2.5-4.4c-0.4,0-0.5-0.4-0.2-0.9c0.3-0.5,0.1-0.9-0.4-0.9s-1-0.4-1-1
			c0-0.5-1.6-4.2-3.6-8.2c-2-3.9-4.1-8.7-4.7-10.7c-0.6-1.9-1.5-3.5-2-3.5c-0.5,0-0.8-0.3-0.7-0.7c0.2-0.7-4.5-10.8-13.1-28.2
			c-2.4-4.9-4.4-9.1-4.4-9.3c0-0.3-2-4.5-4.3-9.3c-8.2-17-11.8-24.7-12.5-27c-0.4-1.3-1-2.5-1.3-2.8c-0.8-0.6-5.9-11.3-8.6-17.7
			c-1.2-2.8-2.5-5.4-3-5.7c-0.5-0.3-0.8-0.8-0.8-1.2c0.1-0.9-5.8-13.7-18.2-39.3c-3-6.2-5.4-11.4-5.4-11.7c0-0.3-3-6.6-6.6-14
			c-7.9-16.2-10.7-22.2-10.6-23c0-0.3-0.3-0.8-0.7-1.2c-1-0.7-20.3-39.6-21.8-44.1c-0.7-1.9-1.6-3.5-2-3.5c-0.4,0-0.5-0.4-0.2-0.9
			c0.3-0.5,0.2-0.9-0.2-0.9c-0.4,0-1.6-2.1-2.6-4.7c-1-2.6-2.2-4.7-2.6-4.7c-0.4,0-0.5-0.4-0.2-0.9c0.3-0.5,0.1-0.9-0.4-0.9
			c-0.5,0-0.9-0.3-0.8-0.7c0.2-0.9-3.9-9.9-4.8-10.5c-0.9-0.6-17.8-34.2-17.6-35.1c0.1-0.3-0.2-0.9-0.6-1.2
			c-0.9-0.7-3-4.5-17.2-31.8c-2.3-4.4-4.3-8.1-4.6-8.4c-0.3-0.3-1.7-3-3.3-6.1c-1.5-3.1-3-5.8-3.3-6.1c-0.6-0.6-4.7-8-6-10.9
			c-0.5-1.1-1.3-2.1-1.7-2.1c-0.4,0-0.5-0.4-0.2-0.9c0.3-0.5,0.1-0.9-0.4-0.9c-0.5,0-1-0.4-1-1c0-0.5-1.1-2.6-2.3-4.7
			c-1.3-2-2-3.7-1.6-3.7c0.4,0,0-0.5-0.9-1c-0.9-0.5-1.6-1.5-1.6-2.1c0-0.6-1.7-3.6-3.7-6.7s-3.7-6.1-3.7-6.7c0-0.6-0.7-1.3-1.5-1.6
			c-0.8-0.3-1.2-1-0.9-1.5c0.3-0.5,0.1-0.9-0.4-0.9c-0.5,0-1-0.5-1-1.1c0-0.6-1.7-3.5-3.7-6.5c-2.1-3-3.7-5.7-3.7-6
			c0-0.3-1.9-3.2-4.2-6.4c-2.3-3.2-4.2-6.2-4.2-6.7c0-0.5-0.8-1.3-1.9-2c-1-0.6-1.9-1.7-1.9-2.3c0-0.6-0.9-1.7-1.9-2.4
			c-1-0.7-1.7-1.5-1.5-1.9c1.9-3-19.1-21.6-24.3-21.6c-7.2,0-10,24.9-6,53.1c0.6,4.4,1.3,9,1.5,10.3c1.2,8.4,4.5,26.7,5.8,32.2
			c0.8,3.6,2.5,11.6,3.6,17.7c1.2,6.2,2.3,12,2.6,13.1c1.5,6,4.3,18.3,4.8,21.9c0.4,2.3,1,4.9,1.4,5.7c0.4,0.8,1.7,5.8,2.7,11.2
			c1.1,5.3,2.6,11.6,3.3,13.9c0.7,2.3,2.2,8.4,3.2,13.5c1,5.1,2.3,10.2,2.8,11.2c0.5,1,1.8,5.8,2.9,10.7c1.1,4.9,2.3,9.8,2.8,10.9
			c0.4,1.1,1.9,6.8,3.3,12.6c1.3,5.8,2.8,11.4,3.3,12.4c1,2.3,4.6,17.4,4.6,19.4c0,0.8,0.3,1.6,0.8,1.7c0.4,0.2,2.1,5.6,3.8,12
			c4.8,18.6,8.2,31.1,8.8,32.6c0.6,1.4,1.6,4.8,8.3,29.8c1.7,6.4,3.4,12.1,3.7,12.6c0.3,0.5,1.5,4.5,2.5,8.8
			c1.1,4.3,2.4,8.7,2.8,9.8c0.5,1,2,6.3,3.3,11.7c1.3,5.4,2.8,10.5,3.2,11.3s1.7,5.3,2.8,9.8c1.1,4.5,2.3,8.7,2.7,9.2
			s1.9,4.7,3.3,9.3c1.4,4.6,2.9,8.8,3.3,9.3c0.4,0.5,1.6,4.3,2.8,8.4c1.1,4.1,2.4,7.9,2.8,8.4c0.4,0.5,1.7,3.9,2.8,7.5
			c1.1,3.6,2.3,7.2,2.6,7.9c0.3,0.8,0.6,1.6,0.7,1.9s0.6,1.3,1.1,2.3c0.6,1,1.3,3,1.6,4.4c0.3,1.4,1.1,3.7,1.7,5.1s1.1,3,1.2,3.5
			c0.1,0.5,0.9,2.5,1.7,4.4c0.9,1.9,1.6,4,1.6,4.6c0,0.6,0.8,2.8,1.8,4.9c1,2.1,2.9,7.1,4.3,11.2c1.3,4.1,2.7,7.9,3.1,8.4
			c0.4,0.5,1.7,4.1,2.9,7.9c1.2,3.8,2.6,7.5,3.1,8.2c0.5,0.6,0.6,1.2,0.3,1.2c-0.3,0,0,0.9,0.8,2.1c0.8,1.1,1.5,2.6,1.5,3.1
			c0,0.6,0.7,2.7,1.6,4.7c0.9,2,1.5,4.1,1.4,4.8c-0.1,0.6,0.1,1.2,0.6,1.2c0.4,0,1.6,2.4,2.5,5.4c0.9,2.9,2.6,7.5,3.7,10
			c1.1,2.6,2.6,6.5,3.4,8.9c0.7,2.3,1.6,4.4,1.9,4.7c0.3,0.3,1.7,3.8,3.1,7.8c1.4,4.1,2.8,7.8,3.2,8.4c0.4,0.6,1.8,3.9,3,7.5
			c1.2,3.6,2.5,6.7,2.8,7c0.3,0.3,1.7,3.8,3.2,7.9c1.4,4.1,3.2,8.3,3.9,9.3c0.7,1,1.3,2.3,1.3,2.9c0,0.6,0.7,2.7,1.6,4.7
			c0.9,2,1.7,3.9,1.7,4.3c0.1,0.4,0.3,0.9,0.4,1.2c0.1,0.3,0.3,0.8,0.4,1.2c0.1,0.4,0.6,1.5,1.2,2.6c0.6,1,1.5,3.5,2.2,5.6
			c0.6,2.1,1.5,4.2,1.9,4.7c0.4,0.5,1.7,3.5,2.8,6.5c1.1,3.1,2.7,6.5,3.4,7.6c0.7,1.1,1.2,2.4,1.1,2.8c-0.1,0.4,0.5,2.3,1.3,4.1
			c1.9,4.2,3.8,8.7,4,9.3c0.1,0.3,0.8,1.9,1.6,3.7c3.1,6.8,3.9,8.9,3.6,9.7c-0.1,0.5,0.1,1.1,0.6,1.4c0.6,0.5,6.1,12.6,6.4,14.1
			c0.1,0.5,2.4,5.8,5.6,12.7c1.2,2.6,2.2,5.1,2.2,5.5c0,0.4,1.2,3.3,2.7,6.4c3.6,7.7,7.1,15.7,7.2,16.4c0.1,0.6,2.5,6.1,5.6,12.7
			c2.2,4.6,6.2,13.6,6.5,14.4c0.1,0.3,1.3,2.9,2.6,5.9c1.4,3,2.5,6.1,2.5,6.8c0,0.7,0.3,1.3,0.7,1.3c0.7,0,3.2,5.7,4.4,10
			c0.3,1.2,1,2.1,1.5,2.1c0.5,0,0.8,0.3,0.7,0.7c-0.1,0.4,0.7,2.5,1.9,4.6c1.1,2.2,2.1,4.6,2.1,5.4c0,0.8,0.4,1.4,0.9,1.4
			c0.5,0,0.9,0.3,0.8,0.7c-0.2,1,6.3,14.9,18.4,39.8c3,6.2,5.5,11.6,5.5,12.1c0,0.5,0.2,1.1,0.5,1.4c0.9,0.8,47,93.7,46.7,94
			c-0.1,0.2,0.2,0.7,0.8,1c0.6,0.4,3.4,5.2,6.3,10.8c2.9,5.6,6.9,13.3,8.9,17.2c2,3.8,4.6,8.7,5.6,10.7c1.1,2.1,2.4,4,2.9,4.4
			c0.5,0.4,0.7,0.7,0.3,0.7c-0.4,0,0.3,1.6,1.6,3.5c1.3,1.9,2.4,4,2.4,4.7c0,0.6,0.4,1.2,1,1.2c0.5,0,0.7,0.4,0.4,0.9
			c-0.3,0.5-0.2,0.9,0.2,0.9c0.4,0,1.8,2.3,3.1,5.1c1.3,2.8,2.7,5.1,3.1,5.1c0.4,0,0.5,0.4,0.2,1c-0.3,0.5-0.2,0.9,0.3,0.9
			c0.5,0,2,2.2,3.4,4.9c2.4,4.8,4.7,9,10.1,18c1.4,2.4,2.6,4.7,2.6,5.2s0.4,0.8,0.9,0.8c0.5,0,0.8,0.3,0.7,0.8
			c-0.1,0.4,1.6,3.5,3.7,6.9c2.2,3.4,4,6.5,4,6.9c0,0.4,1.7,3.3,3.7,6.4c2,3.1,3.7,6.1,3.7,6.7c0,0.6,0.7,1.3,1.5,1.7
			c0.8,0.3,1.3,0.8,1,1.1c-0.3,0.3,0.5,2.1,1.7,3.9c1.3,1.9,2.3,3.9,2.3,4.4c0,0.6,0.7,1.3,1.5,1.6c0.8,0.3,1.2,1,0.9,1.5
			c-0.3,0.5-0.1,0.9,0.4,0.9s1,0.4,1,1c0,0.5,1.9,3.8,4.2,7.2c2.3,3.4,4.2,6.7,4.2,7.3c0,0.6,0.7,1.3,1.5,1.7c0.8,0.3,1.3,0.8,1,1.1
			c-0.3,0.3,0.9,2.6,2.7,5.1c1.8,2.5,2.9,4.6,2.5,4.6c-0.4,0,0,0.5,0.9,1c0.9,0.5,1.6,1.6,1.6,2.3c0,0.7,0.4,1.4,0.9,1.4
			s0.9,0.5,0.9,1.2c0,0.7,1.9,3.8,4.2,7c2.3,3.2,3.9,5.8,3.5,5.8c-0.4,0,0,0.5,0.9,1c0.9,0.5,1.6,1.6,1.6,2.3c0,0.7,0.4,1.4,0.9,1.4
			s0.9,0.4,0.9,0.9c0,0.5,1.3,2.7,2.8,5c1.5,2.3,2.8,4.6,2.8,5.1s0.7,1.2,1.5,1.5c0.8,0.3,1.3,0.8,1,1.1c-0.3,0.3-0.1,1,0.3,1.6
			c2.9,3.5,11.2,15.5,11.1,16.1c-0.1,0.4,0.5,1,1.3,1.5c0.8,0.5,1.5,1.3,1.5,1.8s2.9,4.9,6.5,9.7c3.6,4.8,6.5,9.1,6.5,9.6
			c0,0.5,0.7,1.3,1.6,1.9c0.9,0.5,1.3,1,0.8,1c-0.4,0,0.8,2,2.8,4.5c4.9,6.1,8.7,11.2,8.8,12.1c0.1,0.4,0.9,1.3,1.8,1.9
			c1,0.7,1.7,1.6,1.7,2.1c0,0.5,3.1,4.8,6.8,9.5c3.8,4.7,6.9,8.9,6.9,9.3c0.1,0.4,1.2,1.6,2.5,2.6c1.3,1,2.4,2.3,2.4,2.9
			c0,0.6,0.6,1.7,1.4,2.5c2.6,2.8,15.9,18.9,16.8,20.4c0.5,0.8,2.1,2.5,3.5,3.7c1.4,1.2,2.6,2.7,2.6,3.2c0,0.5,1.7,2.4,3.7,4.2
			c2,1.7,3.6,3.5,3.5,3.9c-0.9,3,75.5,79.3,79.3,79.3c0.6,0,1.7,1,2.6,2.3c0.8,1.3,2.5,2.9,3.7,3.5c1.2,0.6,6.1,4.4,11,8.4
			c4.9,4,9.3,7.2,9.9,7.2c0.5,0,1,0.4,1,1c0,0.5,1,1.4,2.3,1.8s2.3,1.3,2.3,1.8c0,0.5,0.4,1,0.9,1c0.5,0,3.8,2.1,7.3,4.7
			s6.7,4.7,7,4.7c0.3,0,4.1,2.2,8.3,4.9c10.1,6.4,41.8,23.1,44,23.1c0.3,0,2.2,0.7,4.1,1.5c1.9,0.8,3.9,1.7,4.4,1.8
			c2.4,0.7,15.1,5.2,16.8,6c1,0.5,5.6,1.7,10.3,2.8c4.6,1.1,9.4,2.2,10.7,2.5c32.2,8.1,80.9,4.7,115.6-8c4.4-1.6,8.3-3,8.9-3.2
			c1.1-0.3,11.3-5.1,14-6.5c1-0.6,4.4-2.3,7.5-3.9c10-5.2,12.1-6.5,12.9-7.6c0.4-0.6,1.3-1.2,1.9-1.2c0.6,0,4-1.9,7.4-4.2
			c3.4-2.3,6.6-4.2,7.1-4.2c0.4,0,1.1-0.7,1.4-1.5c0.3-0.8,0.9-1.2,1.4-0.9c0.5,0.3,1.7-0.5,2.7-1.8c1-1.3,2.2-2.3,2.7-2.3
			c2.6,0,37.6-36.3,37.6-39c0-0.5,0.8-1.4,1.9-2c1-0.5,1.9-1.4,1.9-1.9c0-0.5,2.3-4,5.1-7.8c2.8-3.8,4.8-7.1,4.5-7.4
			c-0.3-0.3,0.1-0.8,1-1.1c0.8-0.3,1.5-1,1.5-1.5c0-0.5,1.4-3.1,3.2-5.7c3-4.6,5.1-8.2,10-17.4c1.2-2.3,2.6-4.5,3-4.8
			c0.4-0.3,0.7-0.8,0.7-1.2c-0.1-0.3,1-2.7,2.3-5.2c1.3-2.6,2.3-4.9,2.3-5.2c-0.1-0.3,0.3-0.9,0.8-1.2c0.5-0.3,1.7-2.9,2.8-5.7
			c1.1-2.8,3-7.3,4.3-10c1.3-2.7,2.4-5.3,2.4-5.8c0-0.5,0.9-2.5,1.9-4.5c1-2,2.7-6.3,3.6-9.6c0.9-3.3,2.4-7.2,3.1-8.7
			c0.8-1.5,2.1-5.7,3-9.3c0.9-3.6,1.9-6.9,2.3-7.5c0.4-0.5,1.6-4.7,2.8-9.3c1.1-4.6,2.4-8.8,2.9-9.4c0.5-0.6,0.6-1.3,0.3-1.6
			c-0.3-0.3-0.2-1.1,0.3-1.8c0.5-0.7,1.9-6,3-11.9c1.2-5.9,2.4-11.1,2.8-11.7c0.4-0.5,1.4-5.8,2.3-11.7c0.9-5.9,2-12.2,2.4-14
			c1.4-5.5,1.8-8.3,3.7-23.8c1-8.2,2.2-17.9,2.7-21.4c4.1-29.5,5.7-120.6,3-165.5c-1.1-17.5-1.9-26.5-6.3-69
			c-0.8-7.9-1.7-16.1-1.9-18.1c-0.2-2-0.6-4.4-0.9-5.2c-0.3-0.8-1.5-9.6-2.8-19.6c-1.3-10-2.9-21.3-3.6-25.1
			c-0.7-3.8-2-11.6-2.8-17.2c-0.8-5.6-2-13.2-2.8-16.9c-0.8-3.7-2.1-12.5-2.9-19.6c-0.8-7.1-2.1-16.1-2.8-19.9
			c-0.7-3.8-2-14.3-2.8-23.3c-0.8-9-1.9-21.3-2.5-27.5c-1.5-15.1-1.4-54.7,0.1-65.3c2.8-19.5,3.8-25.6,4.9-28.1
			c0.6-1.5,1.2-3.1,1.2-3.6c0.1-0.5,0.8-2.6,1.7-4.5c0.9-2,1.6-4.1,1.6-4.8s1.5-3.3,3.3-5.9c1.8-2.6,3.3-5,3.3-5.3
			c0-5,16.7-14.3,26.9-15c13.3-0.9,35.9,7.5,51.7,19.2c2.8,2.1,5.4,3.8,5.8,3.8c0.9,0,16.8,12.9,23.4,19c3.1,2.9,5.9,5.2,6.1,5.2
			c0.8,0,41.7,41.1,41.7,41.9c0,0.4,1.1,1.7,2.4,3c4.5,4.2,27.4,30.5,27.4,31.5c0,0.5,1.3,1.9,2.8,3s2.8,2.4,2.8,2.9
			c0,0.5,4.7,6.6,10.5,13.6c5.8,7,10.5,12.9,10.5,13.3c0,0.5,3.2,5,10.4,14.8c1.2,1.7,1.9,3,1.5,3.1c-0.4,0,0,0.5,0.9,1
			s1.6,1.4,1.6,2s3.1,5.1,7,10.2c3.8,5,7,9.4,7,9.8c0,0.4,0.6,1.3,1.4,2.1c3.4,3.6,17.3,21.6,17.3,22.3c0,0.4,1.3,1.7,2.8,2.8
			c1.5,1.1,2.8,2.5,2.8,3.1c0,4.7,83,88,87.7,88c0.5,0,1.5,0.9,2.3,2.1c0.8,1.2,2.1,2.1,2.8,2.1s1.9,0.8,2.5,1.9
			c0.6,1,1.5,1.9,1.9,1.9s4.2,2.6,8.4,5.8c4.2,3.2,8.3,6.2,9.2,6.8c0.9,0.5,4.8,3.1,8.6,5.8c3.9,2.7,7.5,4.9,8,4.9
			c0.5,0,0.9,0.4,0.9,0.9c0,0.5,0.4,0.9,1,0.9c0.5,0,2.9,1.3,5.1,2.8c2.3,1.6,5.6,3.5,7.4,4.2c1.8,0.7,3.3,1.8,3.3,2.3
			c0,0.5,0.5,0.9,1,0.9c0.6,0,6.5,2.8,13.3,6.1c6.8,3.4,14.4,7,16.9,8c2.6,1,5.9,2.4,7.5,3.1c4.5,2.1,18.9,7.1,27.2,9.4
			c4.2,1.2,8.1,2.4,8.6,2.7c0.5,0.3,5.7,1.4,11.4,2.4c5.8,1,14.3,2.5,18.9,3.3c21.6,3.8,62.4,1.6,88.1-4.8c10.5-2.6,21.9-6,24.7-7.3
			c3.2-1.5,12.6-5.3,14-5.7c2.5-0.6,22-9.9,22.8-10.9c0.3-0.3,1.1-0.8,1.9-1.1c0.8-0.3,4.7-2.9,8.7-5.8c4-2.9,7.6-5.2,8.1-5.2
			s1.9-1.3,3.1-2.8c1.3-1.5,2.8-2.8,3.3-2.8c1.2,0,16.9-16.9,16.9-18.2c0-0.5,1.3-2.3,2.8-4c1.5-1.7,2.8-3.3,2.8-3.5
			c0-0.2,1-2,2.2-3.9c1.2-1.9,2.2-3.8,2.3-4.3c0-0.5,0.4-1.1,0.8-1.4c4.4-3.2,17.2-37.8,20.3-55.1c0.8-4.4,2.1-11.3,2.9-15.4
			c5.9-31.6,2.8-120.2-5.7-158c-0.3-1.3-1.7-9-3.2-17.2c-3.3-18.2-6.8-35.7-9.3-45.7c-1-4.1-2.7-11.2-3.8-15.8
			c-1.1-4.6-3.2-13.4-4.7-19.6c-1.5-6.2-2.9-11.8-3-12.6c-0.1-0.8-0.5-1.9-0.8-2.4c-0.3-0.6-1.5-4.9-2.6-9.7s-2.2-9.1-2.5-9.6
			c-0.3-0.5-1.8-5.6-3.3-11.3c-3.1-11.7-3.1-11.7-3.9-13.6c-0.5-1.1-3.8-12.7-4.6-16.3c-0.1-0.5-0.5-1.4-0.8-1.9
			c-0.3-0.5-1.3-3.9-2.2-7.5c-0.9-3.6-2.2-8-2.9-9.8c-1.6-4.2-6.4-19.8-6.5-21c0-0.5-0.3-1.4-0.6-1.9c-0.3-0.5-1.5-4.1-2.6-7.9
			c-1.1-3.8-2.4-7.8-2.9-8.9c-0.5-1-1.8-5.2-2.9-9.3c-1.1-4.1-2.3-7.9-2.6-8.4c-0.3-0.5-0.6-1.1-0.7-1.4c-0.1-0.3-0.4-1.1-0.7-1.9
			c-0.3-0.8-1.5-4.5-2.6-8.4c-1.1-3.8-2.4-7.4-2.7-7.9c-0.4-0.5-1.6-4.3-2.8-8.4c-1.1-4.1-2.4-7.9-2.8-8.4c-0.4-0.5-1.6-4.1-2.7-7.9
			c-1.1-3.8-2.3-7.6-2.6-8.4c-0.3-0.8-0.6-1.6-0.7-1.9s-0.4-1.1-0.7-1.9c-0.3-0.8-1.5-4.1-2.6-7.5c-1.1-3.3-2.5-7.3-3.2-8.9
			c-0.7-1.5-2-5.5-2.9-8.9c-0.9-3.3-2-6.3-2.3-6.5c-0.4-0.3-1.6-3.6-2.8-7.5c-1.1-3.8-2.4-7.4-2.9-8c-0.4-0.6-0.5-1.3-0.2-1.6
			c0.3-0.3,0.2-1.1-0.4-1.8c-0.5-0.7-1.9-4.1-3.1-7.7c-1.1-3.6-2.5-7-2.9-7.6c-0.5-0.6-0.7-1.4-0.6-1.9c0.1-0.4-0.5-2.4-1.4-4.4
			s-1.6-4-1.6-4.4c0-0.4-0.5-1.9-1.1-3.4c-0.6-1.4-1.2-2.8-1.2-3.1c-0.1-0.3-0.4-1.1-0.7-1.9c-0.3-0.8-1.4-4.1-2.5-7.5
			c-1.1-3.3-2.3-6.9-2.8-7.9c-0.5-1-1.8-4.6-2.8-7.9c-1.1-3.3-2.2-6.7-2.4-7.5c-0.2-0.8-0.5-1.6-0.5-1.9c0-0.3-0.3-0.9-0.7-1.4
			c-0.4-0.5-1.7-3.9-2.8-7.5c-1.1-3.6-2.6-7.8-3.3-9.3c-0.7-1.5-1.9-5.1-2.8-7.9c-0.9-2.8-2-5.6-2.5-6.2c-0.5-0.6-0.7-1.4-0.6-1.9
			c0.1-0.4-0.4-2.3-1.2-4.1c-0.8-1.8-1.7-4.5-2.1-6.1c-0.4-1.5-1.3-4.1-1.9-5.6c-0.7-1.5-2.2-5.7-3.3-9.3c-1.2-3.6-2.4-6.9-2.7-7.5
			c-0.4-0.5-1.8-4.7-3.3-9.3c-1.4-4.6-2.9-8.8-3.2-9.3c-0.4-0.5-1.6-4.1-2.8-7.9c-1.2-3.8-2.5-7.4-2.9-7.9c-0.4-0.5-1.7-4.3-2.8-8.4
			s-2.4-7.7-2.7-7.9c-0.4-0.3-11.8-33.9-12.6-37.3c-0.1-0.3-0.4-1.1-0.7-1.9c-1.2-3-8-24-9.1-28.4c-0.7-2.6-1.6-5.2-2.1-5.8
			c-0.5-0.6-0.6-1.2-0.2-1.2c0.4,0,0.3-0.5-0.3-1.2c-0.5-0.6-1.7-3.9-2.5-7.2c-0.9-3.3-1.8-6.7-2.1-7.5c-0.3-0.8-0.6-1.6-0.6-1.9
			c-0.1-0.3-0.4-0.9-0.7-1.4c-0.3-0.5-1.5-4.7-2.7-9.3c-1.2-4.6-2.4-8.8-2.8-9.3c-0.4-0.5-1.6-4.9-2.7-9.8
			c-1.1-4.9-2.3-9.5-2.6-10.3c-0.3-0.8-0.6-1.6-0.7-1.9c-0.1-0.3-0.4-1.1-0.7-1.9s-1.4-5.6-2.5-10.7c-1.1-5.1-2.4-10.2-2.9-11.2
			c-0.8-1.7-3-11.7-7.4-34.5c-1-5.1-2.3-13.5-2.9-18.6c-0.6-5.1-1.4-10.2-1.9-11.4c-0.4-1.2-1.9-9.3-3.2-18.2
			c-1.3-8.8-2.6-16.3-2.8-16.6c-0.5-0.8-4.1-28.6-5.7-44.3c-0.2-2.1-0.8-6.7-1.3-10.3c-4-28.8-3.9-96.9,0.2-106.7
			c0.5-1.3,1-2.8,1.1-3.3c0.1-0.5,0.8-2.6,1.7-4.5c0.9-2,1.6-4.1,1.6-4.7c0-0.6,1.3-3.1,2.9-5.7c1.6-2.5,3.3-5.5,3.7-6.7
			c0.5-1.2,1.3-2.2,1.8-2.2c0.5,0,0.9-0.3,0.7-0.7c-1.2-3.8,33.9-38.9,37.7-37.7c0.4,0.1,0.7-0.2,0.7-0.7c0-0.5,1-1.4,2.3-1.8
			s2.3-1.3,2.3-1.8c0-0.5,0.4-1,0.9-1c0.5,0,3.3-1.7,6.3-3.8c5.2-3.7,13.7-8.9,19.3-12c1.5-0.8,3-1.8,3.3-2.2
			c0.9-1.2,33.9-18.1,36.4-18.6c0.7-0.2,1.5-0.5,1.8-0.8c0.3-0.3,3-1.5,6-2.6c3.1-1.1,6-2.4,6.5-2.8c2.1-1.6,34.5-12.1,34.5-11.2
			c0,0.1,1-0.3,2.1-0.9c1.2-0.6,6.8-2.1,12.6-3.3c5.7-1.2,12.1-2.6,14.2-3.2c4-1.1,28.9-4.5,38.2-5.3c3.1-0.3,9.4-0.9,14-1.4
			c11.3-1.2,53.4-1.1,66.2,0.1c13.9,1.3,16.6,1.6,24.7,2.2c14.3,1.2,34.1,3.4,35.4,4c0.8,0.3,1.8,0.6,2.3,0.7
			c6.1,0.8,28.8,5.3,29.8,6c0.5,0.3,5.1,1.7,10.3,3.1c13.8,3.7,36.1,12.6,38,15.2c0.4,0.6,0.7,0.6,0.7,0c0-0.6,0.3-0.6,0.7,0
			c0.4,0.5,3,2,5.8,3.2c2.8,1.2,5.6,2.8,6.2,3.5c0.6,0.7,1.5,1.2,2,1.2c0.5,0,4.1,2.3,8.1,5.1c3.9,2.8,7.1,4.9,7.1,4.6
			c0-1.2,15.2,11.9,25.5,21.9c11,10.7,23.9,25.1,23.9,26.7c0,0.5,0.8,1.4,1.9,2c1,0.6,1.9,1.8,1.9,2.5c0,0.7,0.9,1.8,1.9,2.4
			c1.1,0.6,1.7,1.3,1.4,1.5c-0.3,0.3,1.2,2.8,3.2,5.5c2,2.8,3.4,5,3,5c-0.4,0,0,0.5,0.9,1c0.9,0.5,1.6,1.6,1.6,2.3
			c0,0.7,0.4,1.4,0.9,1.4c0.5,0,0.9,0.6,0.9,1.4s0.4,1.4,0.9,1.4s0.8,0.3,0.7,0.7s0.9,2.5,2.3,4.6c1.4,2.2,2.5,4.4,2.5,4.9
			s0.4,1,0.9,1c0.5,0,0.8,0.3,0.7,0.7c-0.2,0.7,1.5,3.7,4.9,8.6c0.9,1.3,2.5,4.2,3.7,6.5c1.1,2.3,3.8,7.4,6,11.4
			c5.3,9.9,10.7,20.8,20,40.8c1.1,2.3,2.8,6.7,3.9,9.8c1.1,3.1,2.2,6.2,2.5,7c0.3,0.8,0.6,1.6,0.6,1.9c0.1,0.3,0.4,0.9,0.7,1.4
			c0.3,0.5,1.5,4.3,2.6,8.4c1.1,4.1,2.4,8.3,2.9,9.3c1.5,3.4,6.2,28.2,6.4,34c0,0.8,0.3,6.6,0.6,13.1s0.1,16.1-0.4,21.4
			c-1.8,17.6-3.9,34.8-5.3,42.9c-0.8,4.4-2.4,14.6-3.6,22.8c-2.3,15.6-8.6,43.6-10,44.1c-0.4,0.2-0.8,1-0.8,2
			c0,1.5-2.8,10.3-4.4,14.1c-0.3,0.8-0.5,1.7-0.5,2.1c0.1,0.4-0.2,0.7-0.7,0.7s-1.1,1.4-1.4,3c-0.3,1.7-1.6,5.1-2.8,7.7
			c-1.2,2.6-3.3,7-4.6,9.8c-3.6,7.9-9.5,18.4-12.1,21.8c-1.3,1.7-2.1,3.4-1.8,3.7c0.3,0.3,0.1,0.6-0.5,0.6c-0.6,0-1,0.3-0.9,0.7
			c0.2,0.7-9.2,14.3-11.9,17c-0.8,0.8-1.4,1.9-1.4,2.5c0,0.6-1,1.8-2.3,2.8c-1.3,1-2.1,2-1.8,2.3c0.3,0.3-1.2,2-3.3,3.8
			c-2.1,1.9-3.8,3.8-3.8,4.2c0,1.3-32.6,32.7-34,32.7c-0.7,0-1.9,1-2.8,2.3c-0.8,1.3-1.9,2.3-2.4,2.3c-0.5,0-4.6,2.8-9.1,6.2
			c-4.5,3.4-8.8,6.4-9.6,6.7c-0.8,0.3-4.1,2.3-7.4,4.6c-3.3,2.2-6.6,4-7.2,4s-1.2,0.4-1.2,0.8c0,1.1-21.9,11.8-23.2,11.3
			c-0.2-0.1-0.6,0.2-0.9,0.7c-0.3,0.4-2.9,1.8-5.7,3.1c-2.8,1.3-5.3,2.5-5.6,2.8c-0.5,0.6-6.1,3.6-15.8,8.6c-3.8,2-9.9,5.2-13.5,7.2
			c-3.6,2-7.8,4.2-9.4,5c-1.6,0.8-5.1,2.9-7.9,4.7c-2.8,1.8-5.6,3.3-6.2,3.3s-1.2,0.4-1.2,0.9c0,0.5-0.3,0.8-0.7,0.7
			s-3.7,1.8-7.3,4.2c-3.7,2.4-6.9,4.4-7.3,4.4s-4.6,2.7-9.4,6.1c-4.8,3.3-9.2,6.1-9.7,6.1s-1.3,0.7-1.8,1.6
			c-0.5,0.9-1.2,1.5-1.5,1.4c-0.6-0.3-14.2,9.7-15,11.1c-0.3,0.5-0.9,0.6-1.3,0.4c-0.4-0.3-1.4,0.3-2,1.2c-0.7,1-1.7,1.9-2.3,2.1
			c-6.3,2.2-29.6,27-34.2,36.3c-3.7,7.5-4.3,18.5-1.1,21c1,0.8,1.5,1.4,1.1,1.4c-0.9,0,2.3,3.8,3.2,3.8c0.4,0,2.5,1.3,4.8,2.8
			c24.2,16.3,117.8,17.5,189.8,2.4c0.8-0.2,2-0.5,2.8-0.8c0.8-0.3,5.4-1.6,10.3-2.8c12.8-3.3,40.7-12.4,44.5-14.6
			c1.9-1.1,9-3.7,12.1-4.4c1.2-0.3,2.1-0.8,2.1-1.2c0-0.4,2.7-1.7,6.1-2.9c3.3-1.2,6.1-2.5,6.1-2.9s0.3-0.7,0.7-0.6
			c1,0.2,22.9-10.7,23.8-11.8c0.4-0.5,0.7-0.6,0.7-0.3c0,0.4,2-0.6,4.4-2.1c2.4-1.5,4.9-2.8,5.6-2.8c0.7,0,1.2-0.4,1.2-0.9
			s0.5-0.9,1-0.9s3.8-1.8,7.2-4c3.4-2.2,6.9-4.3,7.7-4.6c0.8-0.3,5.1-3.1,9.5-6.2c4.4-3.1,8.3-5.7,8.7-5.7c0.4,0,4.6-2.9,9.4-6.5
			c4.8-3.6,9.1-6.5,9.6-6.5c0.5,0,1.4-0.8,1.9-1.9c0.5-1,1.4-1.9,2-1.9c1,0,6.4-4.3,16.8-13.3c3.4-3,6.5-5.4,7-5.4
			c0.4,0,2.6-2.1,4.8-4.7c2.2-2.6,4.3-4.5,4.7-4.3c0.8,0.5,37.4-36,37.4-37.4c0-0.6,2.1-2.9,4.7-5.2c2.6-2.3,4.7-4.6,4.7-5.1
			c0-0.5,1.3-2,2.8-3.3c1.5-1.3,2.8-2.6,2.8-3c0-0.3,3.2-4.5,7-9.1c3.9-4.7,7.7-9.4,8.6-10.4c0.8-1,1.5-2.1,1.5-2.3
			c0-0.3,2.8-4.3,6.3-9c3.5-4.7,6.4-9,6.4-9.6c0-0.5,0.4-1,0.9-1s0.9-0.4,0.9-0.9c0-0.8,6.9-11.7,9.3-14.7c0.5-0.6,0.9-1.4,0.9-1.7
			c0-0.3,1.4-2.7,3.1-5.4c1.7-2.7,3.8-6.1,4.5-7.6c3.9-7.8,7.5-14,8.5-14.7c0.6-0.4,0.7-0.7,0.2-0.7c-0.6,0-0.6-0.3,0-0.7
			c0.5-0.4,2-3,3.3-5.8c1.3-2.8,2.7-5.4,3.1-5.7c0.4-0.3,0.8-0.8,0.8-1.2c-0.1-1.2,2.2-6.8,4.5-11.3c1.3-2.6,3.2-6.8,4.2-9.3
			c1-2.6,2.2-5.5,2.8-6.5c0.6-1,1.9-4.3,2.8-7.2c1-2.9,2.1-5.4,2.5-5.4c0.4,0,0.5-0.4,0.2-0.9c-0.3-0.5-0.1-1.6,0.4-2.6
			c1.2-2.1,8-22.7,9.4-28.2c0.6-2.3,1.3-4.8,1.6-5.6c1.9-4.7,6.8-26.7,9.7-42.9c6.9-39.3,8.3-111.2,2.7-133.3
			c-0.5-1.8-1.7-9.3-2.8-16.8c-1.1-7.4-2.3-14.5-2.8-15.6c-0.5-1.2-1.8-6.4-2.8-11.7c-1.1-5.2-2.7-12.1-3.7-15.1
			c-4.1-13.4-10.5-32.8-11.2-34.5c-0.5-1-2-5.2-3.4-9.3c-1.4-4.1-2.8-7.9-3.3-8.5c-0.4-0.6-1.4-2.8-2.2-5.1
			c-0.8-2.2-2.2-5.8-3.2-7.8c-2.6-5.5-5.5-12.6-5.5-13.3c0-0.3-0.3-0.8-0.7-1.1c-1-0.8-11.9-22.8-11.7-23.6c0.1-0.4-0.2-0.7-0.7-0.7
			s-0.9-0.5-0.9-1.2c0-0.6-1.7-3.8-3.7-7c-2-3.2-3.7-6.2-3.7-6.6c0-0.4-1.7-3.3-3.7-6.4c-2.1-3.2-3.7-6.2-3.7-6.7c0-0.5-0.5-1-1.1-1
			c-0.6,0-0.8-0.3-0.5-0.6c0.3-0.3-0.7-2.3-2.2-4.3c-1.5-2.1-2.7-4.3-2.7-4.9c0-0.6-0.6-1.4-1.3-1.6c-0.7-0.3-2-2-2.8-3.8
			c-0.9-1.8-2-3.3-2.5-3.3c-0.5,0-0.8-0.3-0.7-0.8c0.1-0.4-2-3.7-4.7-7.4s-4.9-7-4.9-7.5s-0.6-1.2-1.4-1.5c-0.8-0.3-1.3-0.9-1.2-1.3
			c0.1-0.4-3.7-5.8-8.6-11.9c-4.9-6.1-8.7-11.4-8.6-11.8c0.1-0.4-0.8-1.5-2.1-2.5c-1.3-1-2.3-2.1-2.3-2.5c0-0.8-6.5-8.5-16.5-19.7
			c-3.7-4.2-6.8-8-6.8-8.4c0-0.4-2.3-2.8-5.1-5.3c-2.8-2.5-5.1-5-5.1-5.6c0-1.4-37.5-38.8-38.9-38.8c-0.6,0-2.6-1.9-4.5-4.2
			c-1.9-2.3-4-4.2-4.6-4.2c-0.6,0-2.9-1.9-5-4.2c-2.1-2.3-4.1-4.2-4.3-4.2c-0.3,0-5.1-3.9-10.8-8.6c-5.7-4.7-10.4-8.4-10.5-8.2
			c-0.1,0.2-4.5-3.1-9.9-7.3c-5.4-4.2-10.7-8.1-11.9-8.5s-2.1-1.3-2.1-1.9s-0.2-0.9-0.6-0.6c-0.3,0.3-3.7-1.7-7.6-4.5
			c-3.9-2.8-7.4-5.1-7.8-5.1c-0.4,0-3.8-2-7.5-4.4c-3.7-2.4-7.1-4.3-7.5-4.2c-0.4,0.1-0.8-0.2-0.8-0.7s-0.4-0.9-1-0.9
			c-0.5,0-3.2-1.4-5.8-3.1c-2.7-1.7-11.6-6.3-19.8-10.3c-19.1-9.3-20.4-9.9-32.2-14.6c-12.7-5.1-13.4-5.3-14.1-5.2
			c-0.3,0.1-1.1-0.4-1.9-1c-0.7-0.6-4.7-2-8.8-3.1s-7.9-2.4-8.4-2.8c-0.5-0.4-4.5-1.6-8.9-2.7c-4.4-1.1-8.8-2.4-9.8-2.8
			c-1-0.5-6.1-1.7-11.2-2.8c-5.1-1.1-10-2.2-10.7-2.5c-0.8-0.3-2-0.6-2.8-0.7c-0.8-0.1-2.2-0.5-3.3-0.8
			C2065,238.7,1999.9,233.8,1966.3,235.3"/>
	</g>
</g>
</svg>
